G04 #@! TF.GenerationSoftware,KiCad,Pcbnew,5.1.4+dfsg1-1~bpo10+1*
G04 #@! TF.CreationDate,2021-09-08T12:00:35+01:00*
G04 #@! TF.ProjectId,Project01,50726f6a-6563-4743-9031-2e6b69636164,rev?*
G04 #@! TF.SameCoordinates,Original*
G04 #@! TF.FileFunction,Legend,Bot*
G04 #@! TF.FilePolarity,Positive*
%FSLAX46Y46*%
G04 Gerber Fmt 4.6, Leading zero omitted, Abs format (unit mm)*
G04 Created by KiCad (PCBNEW 5.1.4+dfsg1-1~bpo10+1) date 2021-09-08 12:00:35*
%MOMM*%
%LPD*%
G04 APERTURE LIST*
%ADD10C,0.120000*%
%ADD11C,0.150000*%
G04 APERTURE END LIST*
D10*
X123878000Y-95240000D02*
X123878000Y-92440000D01*
X123878000Y-92440000D02*
X121878000Y-92440000D01*
X121878000Y-92440000D02*
X121878000Y-95240000D01*
X121878000Y-95240000D02*
X123878000Y-95240000D01*
X123878000Y-98796000D02*
X123878000Y-95996000D01*
X123878000Y-95996000D02*
X121878000Y-95996000D01*
X121878000Y-95996000D02*
X121878000Y-98796000D01*
X121878000Y-98796000D02*
X123878000Y-98796000D01*
X123878000Y-102352000D02*
X123878000Y-99552000D01*
X123878000Y-99552000D02*
X121878000Y-99552000D01*
X121878000Y-99552000D02*
X121878000Y-102352000D01*
X121878000Y-102352000D02*
X123878000Y-102352000D01*
D11*
X124130380Y-93006666D02*
X124844666Y-93006666D01*
X124987523Y-92959047D01*
X125082761Y-92863809D01*
X125130380Y-92720952D01*
X125130380Y-92625714D01*
X125130380Y-93482857D02*
X124130380Y-93482857D01*
X124130380Y-93863809D01*
X124178000Y-93959047D01*
X124225619Y-94006666D01*
X124320857Y-94054285D01*
X124463714Y-94054285D01*
X124558952Y-94006666D01*
X124606571Y-93959047D01*
X124654190Y-93863809D01*
X124654190Y-93482857D01*
X124130380Y-94387619D02*
X124130380Y-95006666D01*
X124511333Y-94673333D01*
X124511333Y-94816190D01*
X124558952Y-94911428D01*
X124606571Y-94959047D01*
X124701809Y-95006666D01*
X124939904Y-95006666D01*
X125035142Y-94959047D01*
X125082761Y-94911428D01*
X125130380Y-94816190D01*
X125130380Y-94530476D01*
X125082761Y-94435238D01*
X125035142Y-94387619D01*
X124130380Y-96562666D02*
X124844666Y-96562666D01*
X124987523Y-96515047D01*
X125082761Y-96419809D01*
X125130380Y-96276952D01*
X125130380Y-96181714D01*
X125130380Y-97038857D02*
X124130380Y-97038857D01*
X124130380Y-97419809D01*
X124178000Y-97515047D01*
X124225619Y-97562666D01*
X124320857Y-97610285D01*
X124463714Y-97610285D01*
X124558952Y-97562666D01*
X124606571Y-97515047D01*
X124654190Y-97419809D01*
X124654190Y-97038857D01*
X124225619Y-97991238D02*
X124178000Y-98038857D01*
X124130380Y-98134095D01*
X124130380Y-98372190D01*
X124178000Y-98467428D01*
X124225619Y-98515047D01*
X124320857Y-98562666D01*
X124416095Y-98562666D01*
X124558952Y-98515047D01*
X125130380Y-97943619D01*
X125130380Y-98562666D01*
X124130380Y-100118666D02*
X124844666Y-100118666D01*
X124987523Y-100071047D01*
X125082761Y-99975809D01*
X125130380Y-99832952D01*
X125130380Y-99737714D01*
X125130380Y-100594857D02*
X124130380Y-100594857D01*
X124130380Y-100975809D01*
X124178000Y-101071047D01*
X124225619Y-101118666D01*
X124320857Y-101166285D01*
X124463714Y-101166285D01*
X124558952Y-101118666D01*
X124606571Y-101071047D01*
X124654190Y-100975809D01*
X124654190Y-100594857D01*
X125130380Y-102118666D02*
X125130380Y-101547238D01*
X125130380Y-101832952D02*
X124130380Y-101832952D01*
X124273238Y-101737714D01*
X124368476Y-101642476D01*
X124416095Y-101547238D01*
M02*
