M48
; DRILL file {KiCad 5.1.4+dfsg1-1~bpo10+1} date Wed 08 Sep 2021 12:03:26 BST
; FORMAT={-:-/ absolute / inch / decimal}
; #@! TF.CreationDate,2021-09-08T12:03:26+01:00
; #@! TF.GenerationSoftware,Kicad,Pcbnew,5.1.4+dfsg1-1~bpo10+1
FMAT,2
INCH
T1C0.0118
T2C0.0276
T3C0.0315
T4C0.0354
T5C0.0394
T6C0.0433
T7C0.0472
T8C0.1063
%
G90
G05
T1
X5.4457Y-4.6037
X5.4457Y-4.6937
X5.4857Y-4.3937
X5.4957Y-4.2937
X5.5457Y-4.4937
X5.5457Y-4.7037
X5.5457Y-4.7837
X5.6457Y-4.2937
X5.6457Y-4.3937
X5.6457Y-4.5937
X6.3757Y-4.9637
X6.5157Y-3.7137
X6.6157Y-3.8137
X6.7457Y-3.9437
X6.7457Y-4.2937
X6.8457Y-4.2937
X6.9257Y-4.4937
X6.9457Y-4.2937
X7.0457Y-4.2937
X7.0457Y-4.4937
X7.1457Y-3.6937
X7.1457Y-4.2937
X7.1457Y-4.4937
X7.1857Y-5.3637
X7.2357Y-3.7937
X7.2457Y-4.2937
X7.2457Y-4.4937
X7.3057Y-5.3637
X7.3357Y-3.8937
X7.3457Y-4.2937
X7.3457Y-4.4937
X7.4357Y-5.3637
X7.4457Y-4.2937
X7.4457Y-4.4937
X7.5457Y-4.2937
X7.5457Y-4.4937
X7.5657Y-5.3637
X7.6957Y-5.3637
X7.7757Y-4.8637
X7.7757Y-4.9537
X7.7757Y-5.1337
X7.7757Y-5.3037
T2
X4.7929Y-4.1345
X4.8677Y-4.1345
X5.1577Y-5.1397
X5.1577Y-5.2145
X4.6577Y-3.6745
X4.7325Y-3.6745
X5.6777Y-5.1397
X5.6777Y-5.2145
X6.0377Y-5.1397
X6.0377Y-5.2145
X6.2177Y-5.1397
X6.2177Y-5.2145
X5.4977Y-5.1397
X5.4977Y-5.2145
X4.9877Y-5.1397
X4.9877Y-5.2145
X7.3277Y-3.4397
X7.3277Y-3.5145
X5.8577Y-5.1397
X5.8577Y-5.2145
X4.6577Y-3.9945
X4.7325Y-3.9945
X5.5277Y-3.8697
X5.5277Y-3.9445
X5.4077Y-3.8697
X5.4077Y-3.9445
X5.3277Y-5.1397
X5.3277Y-5.2145
X4.6577Y-3.8245
X4.7325Y-3.8245
T3
X5.4077Y-4.1345
X5.4077Y-4.2329
X6.9077Y-5.1061
X6.9077Y-5.2045
X6.5077Y-5.1645
X6.5077Y-5.2629
X4.9777Y-3.7145
X4.9777Y-3.8145
X4.9777Y-3.9145
X4.9777Y-4.0145
X4.9777Y-4.1145
X4.9777Y-4.2145
X4.9777Y-4.3145
X4.9777Y-4.4145
X4.9777Y-4.5145
X4.9777Y-4.6145
X4.9777Y-4.7145
X4.9777Y-4.8145
X4.9777Y-4.9145
X4.9777Y-5.0145
X5.2777Y-3.7145
X5.2777Y-3.8145
X5.2777Y-3.9145
X5.2777Y-4.0145
X5.2777Y-4.1145
X5.2777Y-4.2145
X5.2777Y-4.3145
X5.2777Y-4.4145
X5.2777Y-4.5145
X5.2777Y-4.6145
X5.2777Y-4.7145
X5.2777Y-4.8145
X5.2777Y-4.9145
X5.2777Y-5.0145
T4
X5.4977Y-5.3245
X5.4977Y-5.4245
X5.1577Y-5.3245
X5.1577Y-5.4245
X6.0377Y-5.3245
X6.0377Y-5.4245
X6.2177Y-5.3245
X6.2177Y-5.4245
X5.3277Y-5.3245
X5.3277Y-5.4245
X7.1277Y-3.4745
X7.2277Y-3.4745
X5.6777Y-5.3245
X5.6777Y-5.4245
X5.8577Y-5.3245
X5.8577Y-5.4245
X4.9877Y-5.3245
X4.9877Y-5.4245
T5
X5.6677Y-4.7945
X5.7677Y-4.7945
X5.8677Y-4.7945
X5.9677Y-4.7945
X6.0677Y-4.7945
X6.1677Y-4.7945
X6.2677Y-4.7945
X6.3677Y-4.7945
X6.4677Y-4.7945
X6.5677Y-4.7945
X6.6677Y-4.7945
X6.7677Y-4.7945
X6.8677Y-4.7945
X6.9677Y-4.7945
X7.0677Y-4.7945
X7.1677Y-4.7945
X7.2677Y-4.7945
X7.3677Y-4.7945
X7.4677Y-4.7945
X7.5677Y-4.7945
X4.8377Y-3.4445
X4.8377Y-3.5445
X4.9377Y-3.4445
X4.9377Y-3.5445
X5.0377Y-3.4445
X5.0377Y-3.5445
X5.1377Y-3.4445
X5.1377Y-3.5445
X5.2377Y-3.4445
X5.2377Y-3.5445
X5.3377Y-3.4445
X5.3377Y-3.5445
X5.4377Y-3.4445
X5.4377Y-3.5445
X5.5377Y-3.4445
X5.5377Y-3.5445
X5.6377Y-3.4445
X5.6377Y-3.5445
X5.7377Y-3.4445
X5.7377Y-3.5445
X5.8377Y-3.4445
X5.8377Y-3.5445
X5.9377Y-3.4445
X5.9377Y-3.5445
X6.0377Y-3.4445
X6.0377Y-3.5445
X6.1377Y-3.4445
X6.1377Y-3.5445
X6.2377Y-3.4445
X6.2377Y-3.5445
X6.3377Y-3.4445
X6.3377Y-3.5445
X6.4377Y-3.4445
X6.4377Y-3.5445
X6.5377Y-3.4445
X6.5377Y-3.5445
X6.6377Y-3.4445
X6.6377Y-3.5445
X6.7377Y-3.4445
X6.7377Y-3.5445
X5.6677Y-4.0945
X5.7677Y-4.0945
X5.8677Y-4.0945
X5.9677Y-4.0945
X6.0677Y-4.0945
X6.1677Y-4.0945
X6.2677Y-4.0945
X6.3677Y-4.0945
X6.4677Y-4.0945
X6.5677Y-4.0945
X6.6677Y-4.0945
X6.7677Y-4.0945
X6.8677Y-4.0945
X6.9677Y-4.0945
X7.0677Y-4.0945
X7.1677Y-4.0945
X7.2677Y-4.0945
X7.3677Y-4.0945
X7.4677Y-4.0945
X7.5677Y-4.0945
X4.6177Y-4.3145
X4.6177Y-4.4145
X4.6177Y-4.5145
X4.6177Y-4.6145
X4.6177Y-4.7145
X4.6177Y-4.8145
X4.6177Y-4.9145
X4.6177Y-5.0145
X4.7177Y-4.3145
X4.7177Y-4.4145
X4.7177Y-4.5145
X4.7177Y-4.6145
X4.7177Y-4.7145
X4.7177Y-4.8145
X4.7177Y-4.9145
X4.7177Y-5.0145
T6
X6.7077Y-5.1645
X6.7077Y-5.2645
X6.7077Y-5.3645
X7.0977Y-5.2045
X7.2977Y-5.2045
X7.0977Y-5.0145
X7.2977Y-5.0145
T7
X7.5377Y-3.5567
X7.5377Y-3.6945
X7.5377Y-5.0567
X7.5377Y-5.1945
T8
X6.9291Y-5.3937
X4.6457Y-5.3937
X4.6457Y-3.4646
X6.9291Y-3.4646
T0
M30
