G04 #@! TF.GenerationSoftware,KiCad,Pcbnew,5.1.4+dfsg1-1~bpo10+1*
G04 #@! TF.CreationDate,2021-09-08T12:00:35+01:00*
G04 #@! TF.ProjectId,Project01,50726f6a-6563-4743-9031-2e6b69636164,rev?*
G04 #@! TF.SameCoordinates,Original*
G04 #@! TF.FileFunction,Legend,Top*
G04 #@! TF.FilePolarity,Positive*
%FSLAX46Y46*%
G04 Gerber Fmt 4.6, Leading zero omitted, Abs format (unit mm)*
G04 Created by KiCad (PCBNEW 5.1.4+dfsg1-1~bpo10+1) date 2021-09-08 12:00:35*
%MOMM*%
%LPD*%
G04 APERTURE LIST*
%ADD10C,0.150000*%
%ADD11C,0.500000*%
%ADD12C,0.010000*%
%ADD13C,0.120000*%
G04 APERTURE END LIST*
D10*
X180985047Y-138468380D02*
X180985047Y-137468380D01*
X181366000Y-137468380D01*
X181461238Y-137516000D01*
X181508857Y-137563619D01*
X181556476Y-137658857D01*
X181556476Y-137801714D01*
X181508857Y-137896952D01*
X181461238Y-137944571D01*
X181366000Y-137992190D01*
X180985047Y-137992190D01*
X181985047Y-138468380D02*
X181985047Y-137801714D01*
X181985047Y-137468380D02*
X181937428Y-137516000D01*
X181985047Y-137563619D01*
X182032666Y-137516000D01*
X181985047Y-137468380D01*
X181985047Y-137563619D01*
X182889809Y-138420761D02*
X182794571Y-138468380D01*
X182604095Y-138468380D01*
X182508857Y-138420761D01*
X182461238Y-138373142D01*
X182413619Y-138277904D01*
X182413619Y-137992190D01*
X182461238Y-137896952D01*
X182508857Y-137849333D01*
X182604095Y-137801714D01*
X182794571Y-137801714D01*
X182889809Y-137849333D01*
X183461238Y-138468380D02*
X183366000Y-138420761D01*
X183318380Y-138373142D01*
X183270761Y-138277904D01*
X183270761Y-137992190D01*
X183318380Y-137896952D01*
X183366000Y-137849333D01*
X183461238Y-137801714D01*
X183604095Y-137801714D01*
X183699333Y-137849333D01*
X183746952Y-137896952D01*
X183794571Y-137992190D01*
X183794571Y-138277904D01*
X183746952Y-138373142D01*
X183699333Y-138420761D01*
X183604095Y-138468380D01*
X183461238Y-138468380D01*
X185318380Y-137944571D02*
X185461238Y-137992190D01*
X185508857Y-138039809D01*
X185556476Y-138135047D01*
X185556476Y-138277904D01*
X185508857Y-138373142D01*
X185461238Y-138420761D01*
X185366000Y-138468380D01*
X184985047Y-138468380D01*
X184985047Y-137468380D01*
X185318380Y-137468380D01*
X185413619Y-137516000D01*
X185461238Y-137563619D01*
X185508857Y-137658857D01*
X185508857Y-137754095D01*
X185461238Y-137849333D01*
X185413619Y-137896952D01*
X185318380Y-137944571D01*
X184985047Y-137944571D01*
X186413619Y-138468380D02*
X186413619Y-137944571D01*
X186366000Y-137849333D01*
X186270761Y-137801714D01*
X186080285Y-137801714D01*
X185985047Y-137849333D01*
X186413619Y-138420761D02*
X186318380Y-138468380D01*
X186080285Y-138468380D01*
X185985047Y-138420761D01*
X185937428Y-138325523D01*
X185937428Y-138230285D01*
X185985047Y-138135047D01*
X186080285Y-138087428D01*
X186318380Y-138087428D01*
X186413619Y-138039809D01*
X186842190Y-138420761D02*
X186937428Y-138468380D01*
X187127904Y-138468380D01*
X187223142Y-138420761D01*
X187270761Y-138325523D01*
X187270761Y-138277904D01*
X187223142Y-138182666D01*
X187127904Y-138135047D01*
X186985047Y-138135047D01*
X186889809Y-138087428D01*
X186842190Y-137992190D01*
X186842190Y-137944571D01*
X186889809Y-137849333D01*
X186985047Y-137801714D01*
X187127904Y-137801714D01*
X187223142Y-137849333D01*
X188080285Y-138420761D02*
X187985047Y-138468380D01*
X187794571Y-138468380D01*
X187699333Y-138420761D01*
X187651714Y-138325523D01*
X187651714Y-137944571D01*
X187699333Y-137849333D01*
X187794571Y-137801714D01*
X187985047Y-137801714D01*
X188080285Y-137849333D01*
X188127904Y-137944571D01*
X188127904Y-138039809D01*
X187651714Y-138135047D01*
X189604095Y-137468380D02*
X189604095Y-138182666D01*
X189556476Y-138325523D01*
X189461238Y-138420761D01*
X189318380Y-138468380D01*
X189223142Y-138468380D01*
X190508857Y-137801714D02*
X190508857Y-138468380D01*
X190080285Y-137801714D02*
X190080285Y-138325523D01*
X190127904Y-138420761D01*
X190223142Y-138468380D01*
X190366000Y-138468380D01*
X190461238Y-138420761D01*
X190508857Y-138373142D01*
X190985047Y-138468380D02*
X190985047Y-137801714D01*
X190985047Y-137896952D02*
X191032666Y-137849333D01*
X191127904Y-137801714D01*
X191270761Y-137801714D01*
X191366000Y-137849333D01*
X191413619Y-137944571D01*
X191413619Y-138468380D01*
X191413619Y-137944571D02*
X191461238Y-137849333D01*
X191556476Y-137801714D01*
X191699333Y-137801714D01*
X191794571Y-137849333D01*
X191842190Y-137944571D01*
X191842190Y-138468380D01*
X192318380Y-137801714D02*
X192318380Y-138801714D01*
X192318380Y-137849333D02*
X192413619Y-137801714D01*
X192604095Y-137801714D01*
X192699333Y-137849333D01*
X192746952Y-137896952D01*
X192794571Y-137992190D01*
X192794571Y-138277904D01*
X192746952Y-138373142D01*
X192699333Y-138420761D01*
X192604095Y-138468380D01*
X192413619Y-138468380D01*
X192318380Y-138420761D01*
X193842190Y-137468380D02*
X194175523Y-138468380D01*
X194508857Y-137468380D01*
X195366000Y-138468380D02*
X194794571Y-138468380D01*
X195080285Y-138468380D02*
X195080285Y-137468380D01*
X194985047Y-137611238D01*
X194889809Y-137706476D01*
X194794571Y-137754095D01*
X195794571Y-138373142D02*
X195842190Y-138420761D01*
X195794571Y-138468380D01*
X195746952Y-138420761D01*
X195794571Y-138373142D01*
X195794571Y-138468380D01*
X196461238Y-137468380D02*
X196556476Y-137468380D01*
X196651714Y-137516000D01*
X196699333Y-137563619D01*
X196746952Y-137658857D01*
X196794571Y-137849333D01*
X196794571Y-138087428D01*
X196746952Y-138277904D01*
X196699333Y-138373142D01*
X196651714Y-138420761D01*
X196556476Y-138468380D01*
X196461238Y-138468380D01*
X196366000Y-138420761D01*
X196318380Y-138373142D01*
X196270761Y-138277904D01*
X196223142Y-138087428D01*
X196223142Y-137849333D01*
X196270761Y-137658857D01*
X196318380Y-137563619D01*
X196366000Y-137516000D01*
X196461238Y-137468380D01*
X190144095Y-111306380D02*
X190144095Y-112115904D01*
X190191714Y-112211142D01*
X190239333Y-112258761D01*
X190334571Y-112306380D01*
X190525047Y-112306380D01*
X190620285Y-112258761D01*
X190667904Y-112211142D01*
X190715523Y-112115904D01*
X190715523Y-111306380D01*
X191144095Y-112258761D02*
X191286952Y-112306380D01*
X191525047Y-112306380D01*
X191620285Y-112258761D01*
X191667904Y-112211142D01*
X191715523Y-112115904D01*
X191715523Y-112020666D01*
X191667904Y-111925428D01*
X191620285Y-111877809D01*
X191525047Y-111830190D01*
X191334571Y-111782571D01*
X191239333Y-111734952D01*
X191191714Y-111687333D01*
X191144095Y-111592095D01*
X191144095Y-111496857D01*
X191191714Y-111401619D01*
X191239333Y-111354000D01*
X191334571Y-111306380D01*
X191572666Y-111306380D01*
X191715523Y-111354000D01*
X192477428Y-111782571D02*
X192620285Y-111830190D01*
X192667904Y-111877809D01*
X192715523Y-111973047D01*
X192715523Y-112115904D01*
X192667904Y-112211142D01*
X192620285Y-112258761D01*
X192525047Y-112306380D01*
X192144095Y-112306380D01*
X192144095Y-111306380D01*
X192477428Y-111306380D01*
X192572666Y-111354000D01*
X192620285Y-111401619D01*
X192667904Y-111496857D01*
X192667904Y-111592095D01*
X192620285Y-111687333D01*
X192572666Y-111734952D01*
X192477428Y-111782571D01*
X192144095Y-111782571D01*
X180044095Y-124645428D02*
X180806000Y-124645428D01*
X180425047Y-125026380D02*
X180425047Y-124264476D01*
X181186952Y-124026380D02*
X181806000Y-124026380D01*
X181472666Y-124407333D01*
X181615523Y-124407333D01*
X181710761Y-124454952D01*
X181758380Y-124502571D01*
X181806000Y-124597809D01*
X181806000Y-124835904D01*
X181758380Y-124931142D01*
X181710761Y-124978761D01*
X181615523Y-125026380D01*
X181329809Y-125026380D01*
X181234571Y-124978761D01*
X181186952Y-124931142D01*
X182091714Y-124026380D02*
X182425047Y-125026380D01*
X182758380Y-124026380D01*
X182996476Y-124026380D02*
X183615523Y-124026380D01*
X183282190Y-124407333D01*
X183425047Y-124407333D01*
X183520285Y-124454952D01*
X183567904Y-124502571D01*
X183615523Y-124597809D01*
X183615523Y-124835904D01*
X183567904Y-124931142D01*
X183520285Y-124978761D01*
X183425047Y-125026380D01*
X183139333Y-125026380D01*
X183044095Y-124978761D01*
X182996476Y-124931142D01*
X158962095Y-92641428D02*
X159724000Y-92641428D01*
X159343047Y-93022380D02*
X159343047Y-92260476D01*
X160104952Y-92022380D02*
X160724000Y-92022380D01*
X160390666Y-92403333D01*
X160533523Y-92403333D01*
X160628761Y-92450952D01*
X160676380Y-92498571D01*
X160724000Y-92593809D01*
X160724000Y-92831904D01*
X160676380Y-92927142D01*
X160628761Y-92974761D01*
X160533523Y-93022380D01*
X160247809Y-93022380D01*
X160152571Y-92974761D01*
X160104952Y-92927142D01*
X161009714Y-92022380D02*
X161343047Y-93022380D01*
X161676380Y-92022380D01*
X161914476Y-92022380D02*
X162533523Y-92022380D01*
X162200190Y-92403333D01*
X162343047Y-92403333D01*
X162438285Y-92450952D01*
X162485904Y-92498571D01*
X162533523Y-92593809D01*
X162533523Y-92831904D01*
X162485904Y-92927142D01*
X162438285Y-92974761D01*
X162343047Y-93022380D01*
X162057333Y-93022380D01*
X161962095Y-92974761D01*
X161914476Y-92927142D01*
X197002000Y-91279904D02*
X196954380Y-91375142D01*
X196954380Y-91518000D01*
X197002000Y-91660857D01*
X197097238Y-91756095D01*
X197192476Y-91803714D01*
X197382952Y-91851333D01*
X197525809Y-91851333D01*
X197716285Y-91803714D01*
X197811523Y-91756095D01*
X197906761Y-91660857D01*
X197954380Y-91518000D01*
X197954380Y-91422761D01*
X197906761Y-91279904D01*
X197859142Y-91232285D01*
X197525809Y-91232285D01*
X197525809Y-91422761D01*
X197954380Y-90803714D02*
X196954380Y-90803714D01*
X197954380Y-90232285D01*
X196954380Y-90232285D01*
X197954380Y-89756095D02*
X196954380Y-89756095D01*
X196954380Y-89518000D01*
X197002000Y-89375142D01*
X197097238Y-89279904D01*
X197192476Y-89232285D01*
X197382952Y-89184666D01*
X197525809Y-89184666D01*
X197716285Y-89232285D01*
X197811523Y-89279904D01*
X197906761Y-89375142D01*
X197954380Y-89518000D01*
X197954380Y-89756095D01*
X197573428Y-95613714D02*
X197573428Y-94851809D01*
X197954380Y-95232761D02*
X197192476Y-95232761D01*
X196954380Y-93899428D02*
X196954380Y-94375619D01*
X197430571Y-94423238D01*
X197382952Y-94375619D01*
X197335333Y-94280380D01*
X197335333Y-94042285D01*
X197382952Y-93947047D01*
X197430571Y-93899428D01*
X197525809Y-93851809D01*
X197763904Y-93851809D01*
X197859142Y-93899428D01*
X197906761Y-93947047D01*
X197954380Y-94042285D01*
X197954380Y-94280380D01*
X197906761Y-94375619D01*
X197859142Y-94423238D01*
X196954380Y-93566095D02*
X197954380Y-93232761D01*
X196954380Y-92899428D01*
X197002000Y-128871904D02*
X196954380Y-128967142D01*
X196954380Y-129110000D01*
X197002000Y-129252857D01*
X197097238Y-129348095D01*
X197192476Y-129395714D01*
X197382952Y-129443333D01*
X197525809Y-129443333D01*
X197716285Y-129395714D01*
X197811523Y-129348095D01*
X197906761Y-129252857D01*
X197954380Y-129110000D01*
X197954380Y-129014761D01*
X197906761Y-128871904D01*
X197859142Y-128824285D01*
X197525809Y-128824285D01*
X197525809Y-129014761D01*
X197954380Y-128395714D02*
X196954380Y-128395714D01*
X197954380Y-127824285D01*
X196954380Y-127824285D01*
X197954380Y-127348095D02*
X196954380Y-127348095D01*
X196954380Y-127110000D01*
X197002000Y-126967142D01*
X197097238Y-126871904D01*
X197192476Y-126824285D01*
X197382952Y-126776666D01*
X197525809Y-126776666D01*
X197716285Y-126824285D01*
X197811523Y-126871904D01*
X197906761Y-126967142D01*
X197954380Y-127110000D01*
X197954380Y-127348095D01*
X146952380Y-126740761D02*
X145952380Y-126740761D01*
X146952380Y-126264571D02*
X145952380Y-126264571D01*
X146952380Y-125693142D01*
X145952380Y-125693142D01*
X145952380Y-125359809D02*
X145952380Y-124788380D01*
X146952380Y-125074095D02*
X145952380Y-125074095D01*
X146428571Y-124121714D02*
X146476190Y-123978857D01*
X146523809Y-123931238D01*
X146619047Y-123883619D01*
X146761904Y-123883619D01*
X146857142Y-123931238D01*
X146904761Y-123978857D01*
X146952380Y-124074095D01*
X146952380Y-124455047D01*
X145952380Y-124455047D01*
X145952380Y-124121714D01*
X146000000Y-124026476D01*
X146047619Y-123978857D01*
X146142857Y-123931238D01*
X146238095Y-123931238D01*
X146333333Y-123978857D01*
X146380952Y-124026476D01*
X146428571Y-124121714D01*
X146428571Y-124455047D01*
X144412380Y-126669333D02*
X143412380Y-126669333D01*
X144412380Y-126193142D02*
X143412380Y-126193142D01*
X144412380Y-125621714D01*
X143412380Y-125621714D01*
X143412380Y-125288380D02*
X143412380Y-124716952D01*
X144412380Y-125002666D02*
X143412380Y-125002666D01*
X144126666Y-124431238D02*
X144126666Y-123955047D01*
X144412380Y-124526476D02*
X143412380Y-124193142D01*
X144412380Y-123859809D01*
X154524761Y-126526476D02*
X154572380Y-126383619D01*
X154572380Y-126145523D01*
X154524761Y-126050285D01*
X154477142Y-126002666D01*
X154381904Y-125955047D01*
X154286666Y-125955047D01*
X154191428Y-126002666D01*
X154143809Y-126050285D01*
X154096190Y-126145523D01*
X154048571Y-126336000D01*
X154000952Y-126431238D01*
X153953333Y-126478857D01*
X153858095Y-126526476D01*
X153762857Y-126526476D01*
X153667619Y-126478857D01*
X153620000Y-126431238D01*
X153572380Y-126336000D01*
X153572380Y-126097904D01*
X153620000Y-125955047D01*
X154477142Y-124955047D02*
X154524761Y-125002666D01*
X154572380Y-125145523D01*
X154572380Y-125240761D01*
X154524761Y-125383619D01*
X154429523Y-125478857D01*
X154334285Y-125526476D01*
X154143809Y-125574095D01*
X154000952Y-125574095D01*
X153810476Y-125526476D01*
X153715238Y-125478857D01*
X153620000Y-125383619D01*
X153572380Y-125240761D01*
X153572380Y-125145523D01*
X153620000Y-125002666D01*
X153667619Y-124955047D01*
X154572380Y-124050285D02*
X154572380Y-124526476D01*
X153572380Y-124526476D01*
X151984761Y-126550285D02*
X152032380Y-126407428D01*
X152032380Y-126169333D01*
X151984761Y-126074095D01*
X151937142Y-126026476D01*
X151841904Y-125978857D01*
X151746666Y-125978857D01*
X151651428Y-126026476D01*
X151603809Y-126074095D01*
X151556190Y-126169333D01*
X151508571Y-126359809D01*
X151460952Y-126455047D01*
X151413333Y-126502666D01*
X151318095Y-126550285D01*
X151222857Y-126550285D01*
X151127619Y-126502666D01*
X151080000Y-126455047D01*
X151032380Y-126359809D01*
X151032380Y-126121714D01*
X151080000Y-125978857D01*
X152032380Y-125550285D02*
X151032380Y-125550285D01*
X151032380Y-125312190D01*
X151080000Y-125169333D01*
X151175238Y-125074095D01*
X151270476Y-125026476D01*
X151460952Y-124978857D01*
X151603809Y-124978857D01*
X151794285Y-125026476D01*
X151889523Y-125074095D01*
X151984761Y-125169333D01*
X152032380Y-125312190D01*
X152032380Y-125550285D01*
X151746666Y-124597904D02*
X151746666Y-124121714D01*
X152032380Y-124693142D02*
X151032380Y-124359809D01*
X152032380Y-124026476D01*
X132609523Y-92466761D02*
X132752380Y-92514380D01*
X132990476Y-92514380D01*
X133085714Y-92466761D01*
X133133333Y-92419142D01*
X133180952Y-92323904D01*
X133180952Y-92228666D01*
X133133333Y-92133428D01*
X133085714Y-92085809D01*
X132990476Y-92038190D01*
X132800000Y-91990571D01*
X132704761Y-91942952D01*
X132657142Y-91895333D01*
X132609523Y-91800095D01*
X132609523Y-91704857D01*
X132657142Y-91609619D01*
X132704761Y-91562000D01*
X132800000Y-91514380D01*
X133038095Y-91514380D01*
X133180952Y-91562000D01*
X134180952Y-92419142D02*
X134133333Y-92466761D01*
X133990476Y-92514380D01*
X133895238Y-92514380D01*
X133752380Y-92466761D01*
X133657142Y-92371523D01*
X133609523Y-92276285D01*
X133561904Y-92085809D01*
X133561904Y-91942952D01*
X133609523Y-91752476D01*
X133657142Y-91657238D01*
X133752380Y-91562000D01*
X133895238Y-91514380D01*
X133990476Y-91514380D01*
X134133333Y-91562000D01*
X134180952Y-91609619D01*
X135085714Y-92514380D02*
X134609523Y-92514380D01*
X134609523Y-91514380D01*
X128775714Y-92466761D02*
X128918571Y-92514380D01*
X129156666Y-92514380D01*
X129251904Y-92466761D01*
X129299523Y-92419142D01*
X129347142Y-92323904D01*
X129347142Y-92228666D01*
X129299523Y-92133428D01*
X129251904Y-92085809D01*
X129156666Y-92038190D01*
X128966190Y-91990571D01*
X128870952Y-91942952D01*
X128823333Y-91895333D01*
X128775714Y-91800095D01*
X128775714Y-91704857D01*
X128823333Y-91609619D01*
X128870952Y-91562000D01*
X128966190Y-91514380D01*
X129204285Y-91514380D01*
X129347142Y-91562000D01*
X129775714Y-92514380D02*
X129775714Y-91514380D01*
X130013809Y-91514380D01*
X130156666Y-91562000D01*
X130251904Y-91657238D01*
X130299523Y-91752476D01*
X130347142Y-91942952D01*
X130347142Y-92085809D01*
X130299523Y-92276285D01*
X130251904Y-92371523D01*
X130156666Y-92466761D01*
X130013809Y-92514380D01*
X129775714Y-92514380D01*
X130728095Y-92228666D02*
X131204285Y-92228666D01*
X130632857Y-92514380D02*
X130966190Y-91514380D01*
X131299523Y-92514380D01*
X197573428Y-133713714D02*
X197573428Y-132951809D01*
X197954380Y-133332761D02*
X197192476Y-133332761D01*
X197954380Y-132428000D02*
X197954380Y-132237523D01*
X197906761Y-132142285D01*
X197859142Y-132094666D01*
X197716285Y-131999428D01*
X197525809Y-131951809D01*
X197144857Y-131951809D01*
X197049619Y-131999428D01*
X197002000Y-132047047D01*
X196954380Y-132142285D01*
X196954380Y-132332761D01*
X197002000Y-132428000D01*
X197049619Y-132475619D01*
X197144857Y-132523238D01*
X197382952Y-132523238D01*
X197478190Y-132475619D01*
X197525809Y-132428000D01*
X197573428Y-132332761D01*
X197573428Y-132142285D01*
X197525809Y-132047047D01*
X197478190Y-131999428D01*
X197382952Y-131951809D01*
X196954380Y-131666095D02*
X197954380Y-131332761D01*
X196954380Y-130999428D01*
X117575714Y-107500380D02*
X117004285Y-107500380D01*
X117290000Y-107500380D02*
X117290000Y-106500380D01*
X117194761Y-106643238D01*
X117099523Y-106738476D01*
X117004285Y-106786095D01*
X170431619Y-85489714D02*
X170431619Y-84918285D01*
X170431619Y-85204000D02*
X171431619Y-85204000D01*
X171288761Y-85108761D01*
X171193523Y-85013523D01*
X171145904Y-84918285D01*
X191767619Y-101745714D02*
X191767619Y-101174285D01*
X191767619Y-101460000D02*
X192767619Y-101460000D01*
X192624761Y-101364761D01*
X192529523Y-101269523D01*
X192481904Y-101174285D01*
X136371714Y-127820380D02*
X135800285Y-127820380D01*
X136086000Y-127820380D02*
X136086000Y-126820380D01*
X135990761Y-126963238D01*
X135895523Y-127058476D01*
X135800285Y-127106095D01*
D11*
X609210Y-128130000D02*
G75*
G03X609210Y-128130000I-359210J0D01*
G01*
D12*
G36*
X170109544Y-108597554D02*
G01*
X170150402Y-108780245D01*
X170154667Y-108921711D01*
X170154667Y-109291422D01*
X169731333Y-109291422D01*
X169480645Y-109285563D01*
X169355626Y-109251308D01*
X169312645Y-109163643D01*
X169308000Y-109048711D01*
X169282428Y-108875311D01*
X169223333Y-108806000D01*
X169163886Y-108879573D01*
X169138673Y-109056840D01*
X169138667Y-109060000D01*
X169100802Y-109261652D01*
X169011667Y-109314000D01*
X168910636Y-109238617D01*
X168884667Y-109067056D01*
X168852242Y-108878007D01*
X168778833Y-108782314D01*
X168704470Y-108723887D01*
X168781845Y-108666068D01*
X168993570Y-108617876D01*
X169126719Y-108601860D01*
X169444027Y-108611465D01*
X169606155Y-108692917D01*
X169719799Y-108773617D01*
X169825916Y-108721992D01*
X169864381Y-108685048D01*
X170017443Y-108568463D01*
X170109544Y-108597554D01*
X170109544Y-108597554D01*
G37*
X170109544Y-108597554D02*
X170150402Y-108780245D01*
X170154667Y-108921711D01*
X170154667Y-109291422D01*
X169731333Y-109291422D01*
X169480645Y-109285563D01*
X169355626Y-109251308D01*
X169312645Y-109163643D01*
X169308000Y-109048711D01*
X169282428Y-108875311D01*
X169223333Y-108806000D01*
X169163886Y-108879573D01*
X169138673Y-109056840D01*
X169138667Y-109060000D01*
X169100802Y-109261652D01*
X169011667Y-109314000D01*
X168910636Y-109238617D01*
X168884667Y-109067056D01*
X168852242Y-108878007D01*
X168778833Y-108782314D01*
X168704470Y-108723887D01*
X168781845Y-108666068D01*
X168993570Y-108617876D01*
X169126719Y-108601860D01*
X169444027Y-108611465D01*
X169606155Y-108692917D01*
X169719799Y-108773617D01*
X169825916Y-108721992D01*
X169864381Y-108685048D01*
X170017443Y-108568463D01*
X170109544Y-108597554D01*
G36*
X156480996Y-108605058D02*
G01*
X156523333Y-108634055D01*
X156478063Y-108717059D01*
X156351416Y-108919022D01*
X156157141Y-109218813D01*
X155908985Y-109595300D01*
X155620695Y-110027352D01*
X155502947Y-110202499D01*
X154482561Y-111717188D01*
X155502947Y-113219366D01*
X155803660Y-113664201D01*
X156069272Y-114061200D01*
X156285931Y-114389318D01*
X156439783Y-114627511D01*
X156516975Y-114754735D01*
X156523333Y-114769439D01*
X156443509Y-114785785D01*
X156223385Y-114799318D01*
X155891985Y-114809033D01*
X155478334Y-114813923D01*
X155232167Y-114814206D01*
X153941000Y-114811078D01*
X152895141Y-113259047D01*
X151849282Y-111707017D01*
X153933502Y-108636667D01*
X155037917Y-108629611D01*
X155469854Y-108625365D01*
X155854014Y-108618849D01*
X156151376Y-108610912D01*
X156322921Y-108602405D01*
X156332833Y-108601427D01*
X156480996Y-108605058D01*
X156480996Y-108605058D01*
G37*
X156480996Y-108605058D02*
X156523333Y-108634055D01*
X156478063Y-108717059D01*
X156351416Y-108919022D01*
X156157141Y-109218813D01*
X155908985Y-109595300D01*
X155620695Y-110027352D01*
X155502947Y-110202499D01*
X154482561Y-111717188D01*
X155502947Y-113219366D01*
X155803660Y-113664201D01*
X156069272Y-114061200D01*
X156285931Y-114389318D01*
X156439783Y-114627511D01*
X156516975Y-114754735D01*
X156523333Y-114769439D01*
X156443509Y-114785785D01*
X156223385Y-114799318D01*
X155891985Y-114809033D01*
X155478334Y-114813923D01*
X155232167Y-114814206D01*
X153941000Y-114811078D01*
X152895141Y-113259047D01*
X151849282Y-111707017D01*
X153933502Y-108636667D01*
X155037917Y-108629611D01*
X155469854Y-108625365D01*
X155854014Y-108618849D01*
X156151376Y-108610912D01*
X156322921Y-108602405D01*
X156332833Y-108601427D01*
X156480996Y-108605058D01*
G36*
X162111333Y-108010038D02*
G01*
X162105579Y-108696656D01*
X162078189Y-109232661D01*
X162013975Y-109636650D01*
X161897745Y-109927220D01*
X161714310Y-110122968D01*
X161448479Y-110242492D01*
X161085064Y-110304389D01*
X160608873Y-110327255D01*
X160216418Y-110330000D01*
X159630559Y-110341194D01*
X159183888Y-110380663D01*
X158847379Y-110457241D01*
X158592006Y-110579761D01*
X158388744Y-110757057D01*
X158256348Y-110926493D01*
X158064727Y-111338968D01*
X158020533Y-111776865D01*
X158113119Y-112204888D01*
X158331840Y-112587746D01*
X158666047Y-112890144D01*
X158883173Y-113004393D01*
X159330113Y-113115921D01*
X159756980Y-113064506D01*
X160169979Y-112848073D01*
X160575318Y-112464545D01*
X160606422Y-112427987D01*
X160782516Y-112212072D01*
X161035651Y-111893595D01*
X161161665Y-111732888D01*
X163993561Y-111732888D01*
X164053344Y-112128876D01*
X164234894Y-112498163D01*
X164544078Y-112812288D01*
X164778333Y-112955082D01*
X165153220Y-113093706D01*
X165508529Y-113105235D01*
X165910593Y-112991359D01*
X165928249Y-112984354D01*
X166322164Y-112747776D01*
X166594490Y-112421479D01*
X166743270Y-112035583D01*
X166766548Y-111620209D01*
X166662366Y-111205480D01*
X166428769Y-110821516D01*
X166088652Y-110515022D01*
X165875378Y-110394773D01*
X165656794Y-110343811D01*
X165356853Y-110345749D01*
X165315778Y-110348478D01*
X164854743Y-110451093D01*
X164486136Y-110669301D01*
X164215825Y-110974642D01*
X164049677Y-111338657D01*
X163993561Y-111732888D01*
X161161665Y-111732888D01*
X161340471Y-111504856D01*
X161671617Y-111078157D01*
X161936241Y-110734055D01*
X162373085Y-110171903D01*
X162734315Y-109729591D01*
X163040036Y-109387273D01*
X163310355Y-109125105D01*
X163565376Y-108923242D01*
X163825207Y-108761841D01*
X164048506Y-108649234D01*
X164299487Y-108542689D01*
X164532623Y-108476295D01*
X164801989Y-108440929D01*
X165161662Y-108427469D01*
X165371000Y-108426124D01*
X165778793Y-108430367D01*
X166073292Y-108451311D01*
X166310418Y-108499355D01*
X166546093Y-108584896D01*
X166768242Y-108685927D01*
X167395411Y-109073788D01*
X167932188Y-109589189D01*
X168347516Y-110201075D01*
X168412073Y-110329758D01*
X168534746Y-110604312D01*
X168611701Y-110836437D01*
X168653399Y-111082149D01*
X168670301Y-111397463D01*
X168673000Y-111727000D01*
X168667352Y-112143175D01*
X168644213Y-112444527D01*
X168594287Y-112685368D01*
X168508280Y-112920007D01*
X168444748Y-113060724D01*
X168055486Y-113697795D01*
X167542347Y-114233579D01*
X166928804Y-114650218D01*
X166238336Y-114929854D01*
X165880636Y-115011179D01*
X165257305Y-115044283D01*
X164615518Y-114947904D01*
X163996428Y-114737032D01*
X163441183Y-114426657D01*
X162990936Y-114031768D01*
X162903587Y-113926747D01*
X162725894Y-113697518D01*
X162571484Y-113497800D01*
X162533505Y-113448517D01*
X162455510Y-113362789D01*
X162383252Y-113358413D01*
X162281812Y-113453897D01*
X162116269Y-113667746D01*
X162113923Y-113670877D01*
X161627903Y-114190848D01*
X161048056Y-114597914D01*
X160404022Y-114881392D01*
X159725439Y-115030600D01*
X159041947Y-115034854D01*
X158576557Y-114945892D01*
X158249705Y-114839593D01*
X157931938Y-114713897D01*
X157814557Y-114658825D01*
X157459482Y-114421076D01*
X157083232Y-114076048D01*
X156731384Y-113672082D01*
X156449516Y-113257522D01*
X156390481Y-113148386D01*
X156279642Y-112916525D01*
X156207748Y-112714783D01*
X156166467Y-112495425D01*
X156147464Y-112210715D01*
X156142406Y-111812917D01*
X156142333Y-111727000D01*
X156146281Y-111299345D01*
X156163340Y-110993343D01*
X156201330Y-110761396D01*
X156268073Y-110555907D01*
X156371388Y-110329278D01*
X156372298Y-110327425D01*
X156784726Y-109664295D01*
X157301620Y-109132104D01*
X157912781Y-108737190D01*
X158608008Y-108485891D01*
X159377101Y-108384545D01*
X159502034Y-108382667D01*
X160079333Y-108382667D01*
X160079333Y-106520000D01*
X162111333Y-106520000D01*
X162111333Y-108010038D01*
X162111333Y-108010038D01*
G37*
X162111333Y-108010038D02*
X162105579Y-108696656D01*
X162078189Y-109232661D01*
X162013975Y-109636650D01*
X161897745Y-109927220D01*
X161714310Y-110122968D01*
X161448479Y-110242492D01*
X161085064Y-110304389D01*
X160608873Y-110327255D01*
X160216418Y-110330000D01*
X159630559Y-110341194D01*
X159183888Y-110380663D01*
X158847379Y-110457241D01*
X158592006Y-110579761D01*
X158388744Y-110757057D01*
X158256348Y-110926493D01*
X158064727Y-111338968D01*
X158020533Y-111776865D01*
X158113119Y-112204888D01*
X158331840Y-112587746D01*
X158666047Y-112890144D01*
X158883173Y-113004393D01*
X159330113Y-113115921D01*
X159756980Y-113064506D01*
X160169979Y-112848073D01*
X160575318Y-112464545D01*
X160606422Y-112427987D01*
X160782516Y-112212072D01*
X161035651Y-111893595D01*
X161161665Y-111732888D01*
X163993561Y-111732888D01*
X164053344Y-112128876D01*
X164234894Y-112498163D01*
X164544078Y-112812288D01*
X164778333Y-112955082D01*
X165153220Y-113093706D01*
X165508529Y-113105235D01*
X165910593Y-112991359D01*
X165928249Y-112984354D01*
X166322164Y-112747776D01*
X166594490Y-112421479D01*
X166743270Y-112035583D01*
X166766548Y-111620209D01*
X166662366Y-111205480D01*
X166428769Y-110821516D01*
X166088652Y-110515022D01*
X165875378Y-110394773D01*
X165656794Y-110343811D01*
X165356853Y-110345749D01*
X165315778Y-110348478D01*
X164854743Y-110451093D01*
X164486136Y-110669301D01*
X164215825Y-110974642D01*
X164049677Y-111338657D01*
X163993561Y-111732888D01*
X161161665Y-111732888D01*
X161340471Y-111504856D01*
X161671617Y-111078157D01*
X161936241Y-110734055D01*
X162373085Y-110171903D01*
X162734315Y-109729591D01*
X163040036Y-109387273D01*
X163310355Y-109125105D01*
X163565376Y-108923242D01*
X163825207Y-108761841D01*
X164048506Y-108649234D01*
X164299487Y-108542689D01*
X164532623Y-108476295D01*
X164801989Y-108440929D01*
X165161662Y-108427469D01*
X165371000Y-108426124D01*
X165778793Y-108430367D01*
X166073292Y-108451311D01*
X166310418Y-108499355D01*
X166546093Y-108584896D01*
X166768242Y-108685927D01*
X167395411Y-109073788D01*
X167932188Y-109589189D01*
X168347516Y-110201075D01*
X168412073Y-110329758D01*
X168534746Y-110604312D01*
X168611701Y-110836437D01*
X168653399Y-111082149D01*
X168670301Y-111397463D01*
X168673000Y-111727000D01*
X168667352Y-112143175D01*
X168644213Y-112444527D01*
X168594287Y-112685368D01*
X168508280Y-112920007D01*
X168444748Y-113060724D01*
X168055486Y-113697795D01*
X167542347Y-114233579D01*
X166928804Y-114650218D01*
X166238336Y-114929854D01*
X165880636Y-115011179D01*
X165257305Y-115044283D01*
X164615518Y-114947904D01*
X163996428Y-114737032D01*
X163441183Y-114426657D01*
X162990936Y-114031768D01*
X162903587Y-113926747D01*
X162725894Y-113697518D01*
X162571484Y-113497800D01*
X162533505Y-113448517D01*
X162455510Y-113362789D01*
X162383252Y-113358413D01*
X162281812Y-113453897D01*
X162116269Y-113667746D01*
X162113923Y-113670877D01*
X161627903Y-114190848D01*
X161048056Y-114597914D01*
X160404022Y-114881392D01*
X159725439Y-115030600D01*
X159041947Y-115034854D01*
X158576557Y-114945892D01*
X158249705Y-114839593D01*
X157931938Y-114713897D01*
X157814557Y-114658825D01*
X157459482Y-114421076D01*
X157083232Y-114076048D01*
X156731384Y-113672082D01*
X156449516Y-113257522D01*
X156390481Y-113148386D01*
X156279642Y-112916525D01*
X156207748Y-112714783D01*
X156166467Y-112495425D01*
X156147464Y-112210715D01*
X156142406Y-111812917D01*
X156142333Y-111727000D01*
X156146281Y-111299345D01*
X156163340Y-110993343D01*
X156201330Y-110761396D01*
X156268073Y-110555907D01*
X156371388Y-110329278D01*
X156372298Y-110327425D01*
X156784726Y-109664295D01*
X157301620Y-109132104D01*
X157912781Y-108737190D01*
X158608008Y-108485891D01*
X159377101Y-108384545D01*
X159502034Y-108382667D01*
X160079333Y-108382667D01*
X160079333Y-106520000D01*
X162111333Y-106520000D01*
X162111333Y-108010038D01*
G36*
X148814872Y-108429520D02*
G01*
X149115244Y-108448744D01*
X149346500Y-108491166D01*
X149558693Y-108565283D01*
X149753155Y-108655462D01*
X150423352Y-109069272D01*
X150959597Y-109581760D01*
X151356070Y-110183768D01*
X151606947Y-110866145D01*
X151706406Y-111619734D01*
X151707917Y-111729091D01*
X151629520Y-112453222D01*
X151406475Y-113116970D01*
X151056993Y-113706076D01*
X150599289Y-114206280D01*
X150051576Y-114603326D01*
X149432069Y-114882952D01*
X148758980Y-115030902D01*
X148050524Y-115032916D01*
X147591000Y-114952036D01*
X146902287Y-114697539D01*
X146296123Y-114305049D01*
X145789129Y-113792550D01*
X145397929Y-113178021D01*
X145139144Y-112479444D01*
X145087533Y-112243909D01*
X145058842Y-111783655D01*
X146985167Y-111783655D01*
X147102269Y-112217135D01*
X147370534Y-112634989D01*
X147391755Y-112659546D01*
X147752143Y-112957234D01*
X148162851Y-113095976D01*
X148609487Y-113073305D01*
X148990543Y-112933500D01*
X149384494Y-112669814D01*
X149627213Y-112342619D01*
X149731475Y-111929599D01*
X149733207Y-111636395D01*
X149683135Y-111253033D01*
X149578035Y-110978592D01*
X149507337Y-110874395D01*
X149164760Y-110557692D01*
X148765727Y-110379429D01*
X148341847Y-110333417D01*
X147924732Y-110413467D01*
X147545993Y-110613390D01*
X147237242Y-110926996D01*
X147030089Y-111348095D01*
X147026425Y-111360146D01*
X146985167Y-111783655D01*
X145058842Y-111783655D01*
X145045183Y-111564550D01*
X145156473Y-110888160D01*
X145407309Y-110240908D01*
X145783596Y-109648966D01*
X146271238Y-109138502D01*
X146856139Y-108735687D01*
X147022204Y-108651912D01*
X147266341Y-108546471D01*
X147488756Y-108479546D01*
X147740662Y-108442673D01*
X148073274Y-108427389D01*
X148395333Y-108425000D01*
X148814872Y-108429520D01*
X148814872Y-108429520D01*
G37*
X148814872Y-108429520D02*
X149115244Y-108448744D01*
X149346500Y-108491166D01*
X149558693Y-108565283D01*
X149753155Y-108655462D01*
X150423352Y-109069272D01*
X150959597Y-109581760D01*
X151356070Y-110183768D01*
X151606947Y-110866145D01*
X151706406Y-111619734D01*
X151707917Y-111729091D01*
X151629520Y-112453222D01*
X151406475Y-113116970D01*
X151056993Y-113706076D01*
X150599289Y-114206280D01*
X150051576Y-114603326D01*
X149432069Y-114882952D01*
X148758980Y-115030902D01*
X148050524Y-115032916D01*
X147591000Y-114952036D01*
X146902287Y-114697539D01*
X146296123Y-114305049D01*
X145789129Y-113792550D01*
X145397929Y-113178021D01*
X145139144Y-112479444D01*
X145087533Y-112243909D01*
X145058842Y-111783655D01*
X146985167Y-111783655D01*
X147102269Y-112217135D01*
X147370534Y-112634989D01*
X147391755Y-112659546D01*
X147752143Y-112957234D01*
X148162851Y-113095976D01*
X148609487Y-113073305D01*
X148990543Y-112933500D01*
X149384494Y-112669814D01*
X149627213Y-112342619D01*
X149731475Y-111929599D01*
X149733207Y-111636395D01*
X149683135Y-111253033D01*
X149578035Y-110978592D01*
X149507337Y-110874395D01*
X149164760Y-110557692D01*
X148765727Y-110379429D01*
X148341847Y-110333417D01*
X147924732Y-110413467D01*
X147545993Y-110613390D01*
X147237242Y-110926996D01*
X147030089Y-111348095D01*
X147026425Y-111360146D01*
X146985167Y-111783655D01*
X145058842Y-111783655D01*
X145045183Y-111564550D01*
X145156473Y-110888160D01*
X145407309Y-110240908D01*
X145783596Y-109648966D01*
X146271238Y-109138502D01*
X146856139Y-108735687D01*
X147022204Y-108651912D01*
X147266341Y-108546471D01*
X147488756Y-108479546D01*
X147740662Y-108442673D01*
X148073274Y-108427389D01*
X148395333Y-108425000D01*
X148814872Y-108429520D01*
G36*
X165682161Y-116497121D02*
G01*
X165954139Y-116694481D01*
X166118354Y-116994073D01*
X166159976Y-117371892D01*
X166101029Y-117694801D01*
X165965818Y-117969567D01*
X165731235Y-118145650D01*
X165717445Y-118152301D01*
X165411280Y-118262546D01*
X165167535Y-118283030D01*
X165046444Y-118232222D01*
X165022948Y-118128842D01*
X165004239Y-117894499D01*
X164992642Y-117567548D01*
X164990662Y-117367700D01*
X165413333Y-117367700D01*
X165417620Y-117677637D01*
X165435073Y-117845949D01*
X165472586Y-117900225D01*
X165537048Y-117868057D01*
X165538093Y-117867193D01*
X165641968Y-117713306D01*
X165713043Y-117496112D01*
X165722134Y-117256068D01*
X165677679Y-117015919D01*
X165596386Y-116833056D01*
X165500095Y-116764667D01*
X165454438Y-116843794D01*
X165423975Y-117059676D01*
X165413333Y-117367700D01*
X164990662Y-117367700D01*
X164990000Y-117300889D01*
X164990000Y-116426000D01*
X165317248Y-116426000D01*
X165682161Y-116497121D01*
X165682161Y-116497121D01*
G37*
X165682161Y-116497121D02*
X165954139Y-116694481D01*
X166118354Y-116994073D01*
X166159976Y-117371892D01*
X166101029Y-117694801D01*
X165965818Y-117969567D01*
X165731235Y-118145650D01*
X165717445Y-118152301D01*
X165411280Y-118262546D01*
X165167535Y-118283030D01*
X165046444Y-118232222D01*
X165022948Y-118128842D01*
X165004239Y-117894499D01*
X164992642Y-117567548D01*
X164990662Y-117367700D01*
X165413333Y-117367700D01*
X165417620Y-117677637D01*
X165435073Y-117845949D01*
X165472586Y-117900225D01*
X165537048Y-117868057D01*
X165538093Y-117867193D01*
X165641968Y-117713306D01*
X165713043Y-117496112D01*
X165722134Y-117256068D01*
X165677679Y-117015919D01*
X165596386Y-116833056D01*
X165500095Y-116764667D01*
X165454438Y-116843794D01*
X165423975Y-117059676D01*
X165413333Y-117367700D01*
X164990662Y-117367700D01*
X164990000Y-117300889D01*
X164990000Y-116426000D01*
X165317248Y-116426000D01*
X165682161Y-116497121D01*
G36*
X164270404Y-116475292D02*
G01*
X164299764Y-116589887D01*
X164310937Y-116812268D01*
X164312667Y-117139778D01*
X164314509Y-117489981D01*
X164326614Y-117704245D01*
X164358844Y-117815963D01*
X164421064Y-117858527D01*
X164523138Y-117865333D01*
X164526990Y-117865334D01*
X164697330Y-117914248D01*
X164807559Y-118026264D01*
X164812866Y-118149295D01*
X164793317Y-118174905D01*
X164664652Y-118225244D01*
X164448747Y-118249362D01*
X164210084Y-118247571D01*
X164013145Y-118220181D01*
X163923424Y-118170717D01*
X163908060Y-118043467D01*
X163900828Y-117790759D01*
X163902515Y-117456311D01*
X163907127Y-117266315D01*
X163921066Y-116894099D01*
X163940828Y-116658351D01*
X163974973Y-116526229D01*
X164032060Y-116464891D01*
X164120651Y-116441494D01*
X164122167Y-116441278D01*
X164214118Y-116436438D01*
X164270404Y-116475292D01*
X164270404Y-116475292D01*
G37*
X164270404Y-116475292D02*
X164299764Y-116589887D01*
X164310937Y-116812268D01*
X164312667Y-117139778D01*
X164314509Y-117489981D01*
X164326614Y-117704245D01*
X164358844Y-117815963D01*
X164421064Y-117858527D01*
X164523138Y-117865333D01*
X164526990Y-117865334D01*
X164697330Y-117914248D01*
X164807559Y-118026264D01*
X164812866Y-118149295D01*
X164793317Y-118174905D01*
X164664652Y-118225244D01*
X164448747Y-118249362D01*
X164210084Y-118247571D01*
X164013145Y-118220181D01*
X163923424Y-118170717D01*
X163908060Y-118043467D01*
X163900828Y-117790759D01*
X163902515Y-117456311D01*
X163907127Y-117266315D01*
X163921066Y-116894099D01*
X163940828Y-116658351D01*
X163974973Y-116526229D01*
X164032060Y-116464891D01*
X164120651Y-116441494D01*
X164122167Y-116441278D01*
X164214118Y-116436438D01*
X164270404Y-116475292D01*
G36*
X163436155Y-116495119D02*
G01*
X163513836Y-116569193D01*
X163620463Y-116834673D01*
X163605443Y-117135802D01*
X163555525Y-117263589D01*
X163527625Y-117476092D01*
X163601887Y-117778928D01*
X163673085Y-118060610D01*
X163642592Y-118214755D01*
X163505311Y-118252907D01*
X163401040Y-118233686D01*
X163242926Y-118123676D01*
X163212000Y-117989383D01*
X163186527Y-117752032D01*
X163122057Y-117599290D01*
X163036510Y-117572881D01*
X163033795Y-117574483D01*
X162981891Y-117683378D01*
X162958153Y-117884768D01*
X162958000Y-117902789D01*
X162927176Y-118118636D01*
X162819095Y-118219001D01*
X162788751Y-118228510D01*
X162637373Y-118241257D01*
X162585599Y-118217218D01*
X162572465Y-118113955D01*
X162564346Y-117880438D01*
X162562162Y-117555699D01*
X162564348Y-117315000D01*
X162569408Y-116976334D01*
X162958000Y-116976334D01*
X163002160Y-117146572D01*
X163085000Y-117188000D01*
X163187143Y-117114399D01*
X163212000Y-116976334D01*
X163167839Y-116806095D01*
X163085000Y-116764667D01*
X162982857Y-116838268D01*
X162958000Y-116976334D01*
X162569408Y-116976334D01*
X162577000Y-116468334D01*
X162987362Y-116442193D01*
X163267932Y-116442055D01*
X163436155Y-116495119D01*
X163436155Y-116495119D01*
G37*
X163436155Y-116495119D02*
X163513836Y-116569193D01*
X163620463Y-116834673D01*
X163605443Y-117135802D01*
X163555525Y-117263589D01*
X163527625Y-117476092D01*
X163601887Y-117778928D01*
X163673085Y-118060610D01*
X163642592Y-118214755D01*
X163505311Y-118252907D01*
X163401040Y-118233686D01*
X163242926Y-118123676D01*
X163212000Y-117989383D01*
X163186527Y-117752032D01*
X163122057Y-117599290D01*
X163036510Y-117572881D01*
X163033795Y-117574483D01*
X162981891Y-117683378D01*
X162958153Y-117884768D01*
X162958000Y-117902789D01*
X162927176Y-118118636D01*
X162819095Y-118219001D01*
X162788751Y-118228510D01*
X162637373Y-118241257D01*
X162585599Y-118217218D01*
X162572465Y-118113955D01*
X162564346Y-117880438D01*
X162562162Y-117555699D01*
X162564348Y-117315000D01*
X162569408Y-116976334D01*
X162958000Y-116976334D01*
X163002160Y-117146572D01*
X163085000Y-117188000D01*
X163187143Y-117114399D01*
X163212000Y-116976334D01*
X163167839Y-116806095D01*
X163085000Y-116764667D01*
X162982857Y-116838268D01*
X162958000Y-116976334D01*
X162569408Y-116976334D01*
X162577000Y-116468334D01*
X162987362Y-116442193D01*
X163267932Y-116442055D01*
X163436155Y-116495119D01*
G36*
X162025382Y-116486907D02*
G01*
X162136513Y-116576379D01*
X162270552Y-116819849D01*
X162330549Y-117137100D01*
X162322577Y-117482164D01*
X162252708Y-117809072D01*
X162127014Y-118071854D01*
X161951569Y-118224543D01*
X161917243Y-118236241D01*
X161733893Y-118278773D01*
X161617387Y-118261941D01*
X161470806Y-118169450D01*
X161455267Y-118158567D01*
X161253683Y-117920937D01*
X161151720Y-117587943D01*
X161151898Y-117527741D01*
X161549010Y-117527741D01*
X161568939Y-117655158D01*
X161653675Y-117828568D01*
X161759825Y-117847043D01*
X161855675Y-117716427D01*
X161890038Y-117595974D01*
X161914064Y-117328158D01*
X161891384Y-117066015D01*
X161831880Y-116861432D01*
X161745433Y-116766298D01*
X161731732Y-116764667D01*
X161652425Y-116840056D01*
X161588785Y-117029294D01*
X161550938Y-117276987D01*
X161549010Y-117527741D01*
X161151898Y-117527741D01*
X161152860Y-117203616D01*
X161260581Y-116811984D01*
X161336760Y-116658834D01*
X161524886Y-116480328D01*
X161775733Y-116420822D01*
X162025382Y-116486907D01*
X162025382Y-116486907D01*
G37*
X162025382Y-116486907D02*
X162136513Y-116576379D01*
X162270552Y-116819849D01*
X162330549Y-117137100D01*
X162322577Y-117482164D01*
X162252708Y-117809072D01*
X162127014Y-118071854D01*
X161951569Y-118224543D01*
X161917243Y-118236241D01*
X161733893Y-118278773D01*
X161617387Y-118261941D01*
X161470806Y-118169450D01*
X161455267Y-118158567D01*
X161253683Y-117920937D01*
X161151720Y-117587943D01*
X161151898Y-117527741D01*
X161549010Y-117527741D01*
X161568939Y-117655158D01*
X161653675Y-117828568D01*
X161759825Y-117847043D01*
X161855675Y-117716427D01*
X161890038Y-117595974D01*
X161914064Y-117328158D01*
X161891384Y-117066015D01*
X161831880Y-116861432D01*
X161745433Y-116766298D01*
X161731732Y-116764667D01*
X161652425Y-116840056D01*
X161588785Y-117029294D01*
X161550938Y-117276987D01*
X161549010Y-117527741D01*
X161151898Y-117527741D01*
X161152860Y-117203616D01*
X161260581Y-116811984D01*
X161336760Y-116658834D01*
X161524886Y-116480328D01*
X161775733Y-116420822D01*
X162025382Y-116486907D01*
G36*
X160958115Y-116454970D02*
G01*
X161010667Y-116510629D01*
X160996648Y-116638424D01*
X160959898Y-116879112D01*
X160908373Y-117187721D01*
X160850029Y-117519275D01*
X160792824Y-117828801D01*
X160744714Y-118071325D01*
X160713655Y-118201873D01*
X160709791Y-118211282D01*
X160611814Y-118244752D01*
X160485085Y-118246647D01*
X160367455Y-118214434D01*
X160292330Y-118111936D01*
X160236146Y-117898044D01*
X160213966Y-117773698D01*
X160167491Y-117525227D01*
X160131867Y-117426589D01*
X160096812Y-117459610D01*
X160074239Y-117526667D01*
X160020428Y-117787413D01*
X160003106Y-117961297D01*
X159950431Y-118144184D01*
X159782826Y-118224753D01*
X159780979Y-118225109D01*
X159609717Y-118237982D01*
X159535591Y-118213812D01*
X159509256Y-118110949D01*
X159467447Y-117884028D01*
X159418027Y-117576712D01*
X159404210Y-117484334D01*
X159351294Y-117138845D01*
X159301615Y-116838536D01*
X159264472Y-116639141D01*
X159259419Y-116616500D01*
X159253649Y-116474888D01*
X159359858Y-116428266D01*
X159428416Y-116426000D01*
X159543157Y-116437706D01*
X159613864Y-116497626D01*
X159658518Y-116642959D01*
X159695101Y-116910907D01*
X159704668Y-116997500D01*
X159738419Y-117268074D01*
X159768835Y-117443050D01*
X159789704Y-117487271D01*
X159790711Y-117484334D01*
X159819122Y-117360088D01*
X159867739Y-117126870D01*
X159910640Y-116912834D01*
X159978907Y-116626996D01*
X160051567Y-116476225D01*
X160146178Y-116426768D01*
X160163910Y-116426000D01*
X160261051Y-116458473D01*
X160324449Y-116580284D01*
X160371058Y-116828023D01*
X160379210Y-116890708D01*
X160432525Y-117174416D01*
X160492273Y-117292669D01*
X160545858Y-117248274D01*
X160580682Y-117044039D01*
X160587333Y-116844337D01*
X160594388Y-116594960D01*
X160630240Y-116471244D01*
X160716916Y-116429651D01*
X160799000Y-116426000D01*
X160958115Y-116454970D01*
X160958115Y-116454970D01*
G37*
X160958115Y-116454970D02*
X161010667Y-116510629D01*
X160996648Y-116638424D01*
X160959898Y-116879112D01*
X160908373Y-117187721D01*
X160850029Y-117519275D01*
X160792824Y-117828801D01*
X160744714Y-118071325D01*
X160713655Y-118201873D01*
X160709791Y-118211282D01*
X160611814Y-118244752D01*
X160485085Y-118246647D01*
X160367455Y-118214434D01*
X160292330Y-118111936D01*
X160236146Y-117898044D01*
X160213966Y-117773698D01*
X160167491Y-117525227D01*
X160131867Y-117426589D01*
X160096812Y-117459610D01*
X160074239Y-117526667D01*
X160020428Y-117787413D01*
X160003106Y-117961297D01*
X159950431Y-118144184D01*
X159782826Y-118224753D01*
X159780979Y-118225109D01*
X159609717Y-118237982D01*
X159535591Y-118213812D01*
X159509256Y-118110949D01*
X159467447Y-117884028D01*
X159418027Y-117576712D01*
X159404210Y-117484334D01*
X159351294Y-117138845D01*
X159301615Y-116838536D01*
X159264472Y-116639141D01*
X159259419Y-116616500D01*
X159253649Y-116474888D01*
X159359858Y-116428266D01*
X159428416Y-116426000D01*
X159543157Y-116437706D01*
X159613864Y-116497626D01*
X159658518Y-116642959D01*
X159695101Y-116910907D01*
X159704668Y-116997500D01*
X159738419Y-117268074D01*
X159768835Y-117443050D01*
X159789704Y-117487271D01*
X159790711Y-117484334D01*
X159819122Y-117360088D01*
X159867739Y-117126870D01*
X159910640Y-116912834D01*
X159978907Y-116626996D01*
X160051567Y-116476225D01*
X160146178Y-116426768D01*
X160163910Y-116426000D01*
X160261051Y-116458473D01*
X160324449Y-116580284D01*
X160371058Y-116828023D01*
X160379210Y-116890708D01*
X160432525Y-117174416D01*
X160492273Y-117292669D01*
X160545858Y-117248274D01*
X160580682Y-117044039D01*
X160587333Y-116844337D01*
X160594388Y-116594960D01*
X160630240Y-116471244D01*
X160716916Y-116429651D01*
X160799000Y-116426000D01*
X160958115Y-116454970D01*
G36*
X158470584Y-116434915D02*
G01*
X158597222Y-116472757D01*
X158638188Y-116556167D01*
X158640000Y-116595334D01*
X158590391Y-116728118D01*
X158428333Y-116764667D01*
X158261787Y-116819095D01*
X158207461Y-116939625D01*
X158269346Y-117062127D01*
X158406302Y-117118612D01*
X158573345Y-117190343D01*
X158630632Y-117305277D01*
X158573262Y-117407308D01*
X158434541Y-117442000D01*
X158270291Y-117474706D01*
X158218081Y-117605194D01*
X158216667Y-117653667D01*
X158250397Y-117813316D01*
X158384886Y-117863985D01*
X158434222Y-117865334D01*
X158593041Y-117893406D01*
X158629599Y-118004197D01*
X158624722Y-118048040D01*
X158576748Y-118168021D01*
X158448144Y-118226927D01*
X158239608Y-118247370D01*
X158008561Y-118248137D01*
X157858972Y-118230120D01*
X157837441Y-118219886D01*
X157819107Y-118121908D01*
X157804499Y-117892275D01*
X157795425Y-117568655D01*
X157793333Y-117300889D01*
X157793333Y-116426000D01*
X158216667Y-116426000D01*
X158470584Y-116434915D01*
X158470584Y-116434915D01*
G37*
X158470584Y-116434915D02*
X158597222Y-116472757D01*
X158638188Y-116556167D01*
X158640000Y-116595334D01*
X158590391Y-116728118D01*
X158428333Y-116764667D01*
X158261787Y-116819095D01*
X158207461Y-116939625D01*
X158269346Y-117062127D01*
X158406302Y-117118612D01*
X158573345Y-117190343D01*
X158630632Y-117305277D01*
X158573262Y-117407308D01*
X158434541Y-117442000D01*
X158270291Y-117474706D01*
X158218081Y-117605194D01*
X158216667Y-117653667D01*
X158250397Y-117813316D01*
X158384886Y-117863985D01*
X158434222Y-117865334D01*
X158593041Y-117893406D01*
X158629599Y-118004197D01*
X158624722Y-118048040D01*
X158576748Y-118168021D01*
X158448144Y-118226927D01*
X158239608Y-118247370D01*
X158008561Y-118248137D01*
X157858972Y-118230120D01*
X157837441Y-118219886D01*
X157819107Y-118121908D01*
X157804499Y-117892275D01*
X157795425Y-117568655D01*
X157793333Y-117300889D01*
X157793333Y-116426000D01*
X158216667Y-116426000D01*
X158470584Y-116434915D01*
G36*
X156702040Y-116444485D02*
G01*
X156762653Y-116531675D01*
X156777258Y-116735174D01*
X156777333Y-116764667D01*
X156810297Y-117013830D01*
X156887009Y-117114939D01*
X156974200Y-117065386D01*
X157038601Y-116862565D01*
X157047389Y-116785834D01*
X157086716Y-116565703D01*
X157176277Y-116464713D01*
X157264167Y-116441278D01*
X157347140Y-116435666D01*
X157401662Y-116466016D01*
X157433704Y-116560842D01*
X157449239Y-116748659D01*
X157454238Y-117057983D01*
X157454667Y-117350914D01*
X157453420Y-117758702D01*
X157445700Y-118025624D01*
X157425535Y-118180146D01*
X157386952Y-118250733D01*
X157323980Y-118265852D01*
X157264167Y-118258973D01*
X157137344Y-118209535D01*
X157073024Y-118079234D01*
X157047632Y-117878504D01*
X156997623Y-117623676D01*
X156916409Y-117514733D01*
X156834597Y-117553732D01*
X156782795Y-117742730D01*
X156777333Y-117860337D01*
X156760935Y-118110194D01*
X156695563Y-118224707D01*
X156556953Y-118236054D01*
X156502167Y-118225229D01*
X156435082Y-118190740D01*
X156391660Y-118103531D01*
X156366971Y-117933108D01*
X156356085Y-117648979D01*
X156354000Y-117308792D01*
X156354000Y-116426000D01*
X156565667Y-116426000D01*
X156702040Y-116444485D01*
X156702040Y-116444485D01*
G37*
X156702040Y-116444485D02*
X156762653Y-116531675D01*
X156777258Y-116735174D01*
X156777333Y-116764667D01*
X156810297Y-117013830D01*
X156887009Y-117114939D01*
X156974200Y-117065386D01*
X157038601Y-116862565D01*
X157047389Y-116785834D01*
X157086716Y-116565703D01*
X157176277Y-116464713D01*
X157264167Y-116441278D01*
X157347140Y-116435666D01*
X157401662Y-116466016D01*
X157433704Y-116560842D01*
X157449239Y-116748659D01*
X157454238Y-117057983D01*
X157454667Y-117350914D01*
X157453420Y-117758702D01*
X157445700Y-118025624D01*
X157425535Y-118180146D01*
X157386952Y-118250733D01*
X157323980Y-118265852D01*
X157264167Y-118258973D01*
X157137344Y-118209535D01*
X157073024Y-118079234D01*
X157047632Y-117878504D01*
X156997623Y-117623676D01*
X156916409Y-117514733D01*
X156834597Y-117553732D01*
X156782795Y-117742730D01*
X156777333Y-117860337D01*
X156760935Y-118110194D01*
X156695563Y-118224707D01*
X156556953Y-118236054D01*
X156502167Y-118225229D01*
X156435082Y-118190740D01*
X156391660Y-118103531D01*
X156366971Y-117933108D01*
X156356085Y-117648979D01*
X156354000Y-117308792D01*
X156354000Y-116426000D01*
X156565667Y-116426000D01*
X156702040Y-116444485D01*
G36*
X155933485Y-116429684D02*
G01*
X156099143Y-116449234D01*
X156167118Y-116497402D01*
X156173222Y-116586938D01*
X156169388Y-116616500D01*
X156096192Y-116765798D01*
X155997506Y-116782889D01*
X155926870Y-116791246D01*
X155880911Y-116864952D01*
X155852493Y-117034333D01*
X155834480Y-117329715D01*
X155828172Y-117502555D01*
X155813389Y-117859914D01*
X155791563Y-118081966D01*
X155753351Y-118202722D01*
X155689411Y-118256193D01*
X155616542Y-118272946D01*
X155526890Y-118276387D01*
X155470082Y-118234605D01*
X155436832Y-118116028D01*
X155417852Y-117889082D01*
X155404876Y-117553280D01*
X155387054Y-117183369D01*
X155359354Y-116954509D01*
X155316044Y-116838469D01*
X155253333Y-116807000D01*
X155143803Y-116734929D01*
X155099278Y-116616500D01*
X155095723Y-116514940D01*
X155145304Y-116457857D01*
X155283833Y-116432502D01*
X155547120Y-116426124D01*
X155634333Y-116426000D01*
X155933485Y-116429684D01*
X155933485Y-116429684D01*
G37*
X155933485Y-116429684D02*
X156099143Y-116449234D01*
X156167118Y-116497402D01*
X156173222Y-116586938D01*
X156169388Y-116616500D01*
X156096192Y-116765798D01*
X155997506Y-116782889D01*
X155926870Y-116791246D01*
X155880911Y-116864952D01*
X155852493Y-117034333D01*
X155834480Y-117329715D01*
X155828172Y-117502555D01*
X155813389Y-117859914D01*
X155791563Y-118081966D01*
X155753351Y-118202722D01*
X155689411Y-118256193D01*
X155616542Y-118272946D01*
X155526890Y-118276387D01*
X155470082Y-118234605D01*
X155436832Y-118116028D01*
X155417852Y-117889082D01*
X155404876Y-117553280D01*
X155387054Y-117183369D01*
X155359354Y-116954509D01*
X155316044Y-116838469D01*
X155253333Y-116807000D01*
X155143803Y-116734929D01*
X155099278Y-116616500D01*
X155095723Y-116514940D01*
X155145304Y-116457857D01*
X155283833Y-116432502D01*
X155547120Y-116426124D01*
X155634333Y-116426000D01*
X155933485Y-116429684D01*
G36*
X154398040Y-116437299D02*
G01*
X154447149Y-116491310D01*
X154475166Y-116618202D01*
X154487929Y-116848145D01*
X154491279Y-117211308D01*
X154491333Y-117300889D01*
X154487030Y-117668992D01*
X154475412Y-117970423D01*
X154458419Y-118167342D01*
X154444097Y-118223014D01*
X154307917Y-118262271D01*
X154150494Y-118163576D01*
X153999700Y-117951031D01*
X153921099Y-117770785D01*
X153808961Y-117503964D01*
X153719739Y-117378593D01*
X153666055Y-117398871D01*
X153660529Y-117568998D01*
X153676103Y-117689272D01*
X153696774Y-117969882D01*
X153667539Y-118181063D01*
X153595929Y-118279886D01*
X153572108Y-118281983D01*
X153451192Y-118247555D01*
X153411833Y-118232594D01*
X153358840Y-118148508D01*
X153324970Y-117936611D01*
X153308401Y-117580986D01*
X153306000Y-117307945D01*
X153307395Y-116914225D01*
X153316162Y-116659554D01*
X153339175Y-116513649D01*
X153383305Y-116446226D01*
X153455427Y-116427002D01*
X153506164Y-116426000D01*
X153642266Y-116458539D01*
X153748418Y-116581404D01*
X153855964Y-116828167D01*
X153980992Y-117137456D01*
X154068268Y-117284125D01*
X154122552Y-117269466D01*
X154148604Y-117094769D01*
X154152667Y-116908600D01*
X154159509Y-116633579D01*
X154189289Y-116488091D01*
X154255886Y-116432580D01*
X154322000Y-116426000D01*
X154398040Y-116437299D01*
X154398040Y-116437299D01*
G37*
X154398040Y-116437299D02*
X154447149Y-116491310D01*
X154475166Y-116618202D01*
X154487929Y-116848145D01*
X154491279Y-117211308D01*
X154491333Y-117300889D01*
X154487030Y-117668992D01*
X154475412Y-117970423D01*
X154458419Y-118167342D01*
X154444097Y-118223014D01*
X154307917Y-118262271D01*
X154150494Y-118163576D01*
X153999700Y-117951031D01*
X153921099Y-117770785D01*
X153808961Y-117503964D01*
X153719739Y-117378593D01*
X153666055Y-117398871D01*
X153660529Y-117568998D01*
X153676103Y-117689272D01*
X153696774Y-117969882D01*
X153667539Y-118181063D01*
X153595929Y-118279886D01*
X153572108Y-118281983D01*
X153451192Y-118247555D01*
X153411833Y-118232594D01*
X153358840Y-118148508D01*
X153324970Y-117936611D01*
X153308401Y-117580986D01*
X153306000Y-117307945D01*
X153307395Y-116914225D01*
X153316162Y-116659554D01*
X153339175Y-116513649D01*
X153383305Y-116446226D01*
X153455427Y-116427002D01*
X153506164Y-116426000D01*
X153642266Y-116458539D01*
X153748418Y-116581404D01*
X153855964Y-116828167D01*
X153980992Y-117137456D01*
X154068268Y-117284125D01*
X154122552Y-117269466D01*
X154148604Y-117094769D01*
X154152667Y-116908600D01*
X154159509Y-116633579D01*
X154189289Y-116488091D01*
X154255886Y-116432580D01*
X154322000Y-116426000D01*
X154398040Y-116437299D01*
G36*
X152870619Y-116439247D02*
G01*
X152986211Y-116526908D01*
X152988136Y-116531834D01*
X152999555Y-116710327D01*
X152897749Y-116796971D01*
X152806562Y-116791438D01*
X152621276Y-116816267D01*
X152475797Y-116967897D01*
X152386696Y-117205395D01*
X152370541Y-117487830D01*
X152426058Y-117731409D01*
X152528095Y-117849961D01*
X152646649Y-117843165D01*
X152712303Y-117719575D01*
X152713333Y-117696000D01*
X152677877Y-117558420D01*
X152628667Y-117526667D01*
X152559876Y-117455754D01*
X152544000Y-117357334D01*
X152583916Y-117233387D01*
X152732433Y-117189747D01*
X152798000Y-117188000D01*
X152939543Y-117194884D01*
X153015385Y-117242383D01*
X153046027Y-117370770D01*
X153051971Y-117620319D01*
X153052000Y-117686942D01*
X153039252Y-117992962D01*
X152995416Y-118165637D01*
X152918075Y-118237275D01*
X152619422Y-118282221D01*
X152325985Y-118170581D01*
X152287672Y-118145408D01*
X152105950Y-118005602D01*
X152005571Y-117864043D01*
X151962806Y-117664700D01*
X151953926Y-117357334D01*
X151964587Y-117082089D01*
X151991978Y-116873615D01*
X152016130Y-116802093D01*
X152191936Y-116631226D01*
X152425165Y-116504841D01*
X152667498Y-116436369D01*
X152870619Y-116439247D01*
X152870619Y-116439247D01*
G37*
X152870619Y-116439247D02*
X152986211Y-116526908D01*
X152988136Y-116531834D01*
X152999555Y-116710327D01*
X152897749Y-116796971D01*
X152806562Y-116791438D01*
X152621276Y-116816267D01*
X152475797Y-116967897D01*
X152386696Y-117205395D01*
X152370541Y-117487830D01*
X152426058Y-117731409D01*
X152528095Y-117849961D01*
X152646649Y-117843165D01*
X152712303Y-117719575D01*
X152713333Y-117696000D01*
X152677877Y-117558420D01*
X152628667Y-117526667D01*
X152559876Y-117455754D01*
X152544000Y-117357334D01*
X152583916Y-117233387D01*
X152732433Y-117189747D01*
X152798000Y-117188000D01*
X152939543Y-117194884D01*
X153015385Y-117242383D01*
X153046027Y-117370770D01*
X153051971Y-117620319D01*
X153052000Y-117686942D01*
X153039252Y-117992962D01*
X152995416Y-118165637D01*
X152918075Y-118237275D01*
X152619422Y-118282221D01*
X152325985Y-118170581D01*
X152287672Y-118145408D01*
X152105950Y-118005602D01*
X152005571Y-117864043D01*
X151962806Y-117664700D01*
X151953926Y-117357334D01*
X151964587Y-117082089D01*
X151991978Y-116873615D01*
X152016130Y-116802093D01*
X152191936Y-116631226D01*
X152425165Y-116504841D01*
X152667498Y-116436369D01*
X152870619Y-116439247D01*
G36*
X151679031Y-117336167D02*
G01*
X151666696Y-117737745D01*
X151650425Y-118000093D01*
X151623204Y-118153289D01*
X151578017Y-118227406D01*
X151507850Y-118252522D01*
X151464500Y-118255940D01*
X151380889Y-118253341D01*
X151326204Y-118215899D01*
X151294309Y-118114294D01*
X151279067Y-117919207D01*
X151274341Y-117601317D01*
X151274000Y-117345773D01*
X151274000Y-116426000D01*
X151703062Y-116426000D01*
X151679031Y-117336167D01*
X151679031Y-117336167D01*
G37*
X151679031Y-117336167D02*
X151666696Y-117737745D01*
X151650425Y-118000093D01*
X151623204Y-118153289D01*
X151578017Y-118227406D01*
X151507850Y-118252522D01*
X151464500Y-118255940D01*
X151380889Y-118253341D01*
X151326204Y-118215899D01*
X151294309Y-118114294D01*
X151279067Y-117919207D01*
X151274341Y-117601317D01*
X151274000Y-117345773D01*
X151274000Y-116426000D01*
X151703062Y-116426000D01*
X151679031Y-117336167D01*
G36*
X150867253Y-116452611D02*
G01*
X150932713Y-116551622D01*
X150935333Y-116595334D01*
X150874883Y-116737472D01*
X150770997Y-116764667D01*
X150590758Y-116807025D01*
X150553524Y-116921637D01*
X150659462Y-117089810D01*
X150767198Y-117188978D01*
X150971962Y-117433885D01*
X151055366Y-117708357D01*
X151008894Y-117964998D01*
X150927144Y-118079142D01*
X150741423Y-118185399D01*
X150486498Y-118249735D01*
X150253565Y-118252659D01*
X150194500Y-118235736D01*
X150105599Y-118122723D01*
X150088667Y-118027611D01*
X150133013Y-117907015D01*
X150292460Y-117866200D01*
X150337670Y-117865334D01*
X150551645Y-117840520D01*
X150621492Y-117757482D01*
X150548514Y-117603324D01*
X150383148Y-117414945D01*
X150210255Y-117203644D01*
X150104337Y-117010062D01*
X150088667Y-116938197D01*
X150164473Y-116711017D01*
X150356508Y-116526576D01*
X150611696Y-116430743D01*
X150681333Y-116426000D01*
X150867253Y-116452611D01*
X150867253Y-116452611D01*
G37*
X150867253Y-116452611D02*
X150932713Y-116551622D01*
X150935333Y-116595334D01*
X150874883Y-116737472D01*
X150770997Y-116764667D01*
X150590758Y-116807025D01*
X150553524Y-116921637D01*
X150659462Y-117089810D01*
X150767198Y-117188978D01*
X150971962Y-117433885D01*
X151055366Y-117708357D01*
X151008894Y-117964998D01*
X150927144Y-118079142D01*
X150741423Y-118185399D01*
X150486498Y-118249735D01*
X150253565Y-118252659D01*
X150194500Y-118235736D01*
X150105599Y-118122723D01*
X150088667Y-118027611D01*
X150133013Y-117907015D01*
X150292460Y-117866200D01*
X150337670Y-117865334D01*
X150551645Y-117840520D01*
X150621492Y-117757482D01*
X150548514Y-117603324D01*
X150383148Y-117414945D01*
X150210255Y-117203644D01*
X150104337Y-117010062D01*
X150088667Y-116938197D01*
X150164473Y-116711017D01*
X150356508Y-116526576D01*
X150611696Y-116430743D01*
X150681333Y-116426000D01*
X150867253Y-116452611D01*
G36*
X149749917Y-116434915D02*
G01*
X149876555Y-116472757D01*
X149917522Y-116556167D01*
X149919333Y-116595334D01*
X149869724Y-116728118D01*
X149707667Y-116764667D01*
X149544032Y-116820851D01*
X149491328Y-116945801D01*
X149557177Y-117074114D01*
X149665333Y-117127866D01*
X149798343Y-117215310D01*
X149828543Y-117337641D01*
X149752966Y-117428758D01*
X149679444Y-117442000D01*
X149500019Y-117477927D01*
X149454987Y-117604994D01*
X149472750Y-117700903D01*
X149586126Y-117838783D01*
X149717541Y-117865334D01*
X149878432Y-117909183D01*
X149919333Y-118034667D01*
X149885241Y-118152458D01*
X149753041Y-118199124D01*
X149629925Y-118204000D01*
X149390235Y-118218610D01*
X149210573Y-118253910D01*
X149206591Y-118255392D01*
X149147879Y-118259286D01*
X149109094Y-118199706D01*
X149086273Y-118050342D01*
X149075452Y-117784884D01*
X149072667Y-117377021D01*
X149072667Y-116426000D01*
X149496000Y-116426000D01*
X149749917Y-116434915D01*
X149749917Y-116434915D01*
G37*
X149749917Y-116434915D02*
X149876555Y-116472757D01*
X149917522Y-116556167D01*
X149919333Y-116595334D01*
X149869724Y-116728118D01*
X149707667Y-116764667D01*
X149544032Y-116820851D01*
X149491328Y-116945801D01*
X149557177Y-117074114D01*
X149665333Y-117127866D01*
X149798343Y-117215310D01*
X149828543Y-117337641D01*
X149752966Y-117428758D01*
X149679444Y-117442000D01*
X149500019Y-117477927D01*
X149454987Y-117604994D01*
X149472750Y-117700903D01*
X149586126Y-117838783D01*
X149717541Y-117865334D01*
X149878432Y-117909183D01*
X149919333Y-118034667D01*
X149885241Y-118152458D01*
X149753041Y-118199124D01*
X149629925Y-118204000D01*
X149390235Y-118218610D01*
X149210573Y-118253910D01*
X149206591Y-118255392D01*
X149147879Y-118259286D01*
X149109094Y-118199706D01*
X149086273Y-118050342D01*
X149075452Y-117784884D01*
X149072667Y-117377021D01*
X149072667Y-116426000D01*
X149496000Y-116426000D01*
X149749917Y-116434915D01*
G36*
X148080283Y-116473808D02*
G01*
X148420645Y-116515054D01*
X148635590Y-116644574D01*
X148756953Y-116887826D01*
X148789483Y-117040966D01*
X148808746Y-117501623D01*
X148703472Y-117860701D01*
X148476546Y-118108888D01*
X148454239Y-118123055D01*
X148212665Y-118231424D01*
X147964083Y-118284698D01*
X147766719Y-118275106D01*
X147689178Y-118225167D01*
X147673955Y-118118359D01*
X147664194Y-117881771D01*
X147661030Y-117554901D01*
X147663014Y-117315000D01*
X147663449Y-117285850D01*
X148058469Y-117285850D01*
X148060688Y-117549678D01*
X148078932Y-117770096D01*
X148114160Y-117894029D01*
X148117843Y-117898287D01*
X148207053Y-117902020D01*
X148299017Y-117783589D01*
X148369717Y-117588034D01*
X148395333Y-117377918D01*
X148363374Y-117104088D01*
X148281570Y-116884961D01*
X148171030Y-116770912D01*
X148138354Y-116764667D01*
X148098262Y-116840268D01*
X148071314Y-117031688D01*
X148058469Y-117285850D01*
X147663449Y-117285850D01*
X147675667Y-116468334D01*
X148080283Y-116473808D01*
X148080283Y-116473808D01*
G37*
X148080283Y-116473808D02*
X148420645Y-116515054D01*
X148635590Y-116644574D01*
X148756953Y-116887826D01*
X148789483Y-117040966D01*
X148808746Y-117501623D01*
X148703472Y-117860701D01*
X148476546Y-118108888D01*
X148454239Y-118123055D01*
X148212665Y-118231424D01*
X147964083Y-118284698D01*
X147766719Y-118275106D01*
X147689178Y-118225167D01*
X147673955Y-118118359D01*
X147664194Y-117881771D01*
X147661030Y-117554901D01*
X147663014Y-117315000D01*
X147663449Y-117285850D01*
X148058469Y-117285850D01*
X148060688Y-117549678D01*
X148078932Y-117770096D01*
X148114160Y-117894029D01*
X148117843Y-117898287D01*
X148207053Y-117902020D01*
X148299017Y-117783589D01*
X148369717Y-117588034D01*
X148395333Y-117377918D01*
X148363374Y-117104088D01*
X148281570Y-116884961D01*
X148171030Y-116770912D01*
X148138354Y-116764667D01*
X148098262Y-116840268D01*
X148071314Y-117031688D01*
X148058469Y-117285850D01*
X147663449Y-117285850D01*
X147675667Y-116468334D01*
X148080283Y-116473808D01*
D13*
X182032635Y-127368000D02*
X183962000Y-127368000D01*
X182032635Y-127368000D02*
G75*
G03X182032635Y-127368000I-1750635J0D01*
G01*
X183611365Y-132194000D02*
X181682000Y-132194000D01*
X187112635Y-132194000D02*
G75*
G03X187112635Y-132194000I-1750635J0D01*
G01*
X196258000Y-95890000D02*
X196258000Y-95490000D01*
X195618000Y-95890000D02*
X196258000Y-95890000D01*
X192399000Y-91485000D02*
X192527000Y-91614000D01*
X190183000Y-89270000D02*
X190277000Y-89364000D01*
X192639000Y-91315000D02*
X192732000Y-91409000D01*
X190389000Y-89065000D02*
X190517000Y-89194000D01*
X188298000Y-88530000D02*
X196018000Y-88530000D01*
X188298000Y-95650000D02*
X196018000Y-95650000D01*
X196018000Y-95650000D02*
X196018000Y-88530000D01*
X188298000Y-95650000D02*
X188298000Y-88530000D01*
X194458000Y-95650000D02*
X194458000Y-88530000D01*
X195558000Y-95650000D02*
X195558000Y-88530000D01*
X193138000Y-90340000D02*
G75*
G03X193138000Y-90340000I-1680000J0D01*
G01*
X193138099Y-93811326D02*
G75*
G02X192898000Y-94706000I-1680099J-28674D01*
G01*
X192347894Y-95265358D02*
G75*
G02X190592000Y-95280000I-889894J1425358D01*
G01*
X190032642Y-94729894D02*
G75*
G02X190018000Y-92974000I1425358J889894D01*
G01*
X190567807Y-92414495D02*
G75*
G02X192349000Y-92415000I890193J-1425505D01*
G01*
X192882721Y-92949736D02*
G75*
G02X193138000Y-93840000I-1424721J-890264D01*
G01*
X136436000Y-105637000D02*
X136436000Y-106895000D01*
X138276000Y-105637000D02*
X138276000Y-106895000D01*
X186873359Y-88947905D02*
G75*
G02X185424000Y-88850867I-749359J-320095D01*
G01*
X123319905Y-104266641D02*
G75*
G02X123222867Y-105716000I320095J-749359D01*
G01*
X183784000Y-87172000D02*
X183784000Y-86992000D01*
X183784000Y-89512000D02*
X183784000Y-89332000D01*
X183904000Y-87172000D02*
X183904000Y-86992000D01*
X183904000Y-89512000D02*
X183904000Y-89332000D01*
X180604000Y-87157000D02*
X180604000Y-86992000D01*
X180604000Y-89512000D02*
X180604000Y-89347000D01*
X184024000Y-87172000D02*
X184024000Y-86992000D01*
X184024000Y-89512000D02*
X184024000Y-89332000D01*
X184024000Y-86992000D02*
X180604000Y-86992000D01*
X184024000Y-89512000D02*
X180604000Y-89512000D01*
X196258000Y-133990000D02*
X196258000Y-133590000D01*
X195618000Y-133990000D02*
X196258000Y-133990000D01*
X192399000Y-129585000D02*
X192527000Y-129714000D01*
X190183000Y-127370000D02*
X190277000Y-127464000D01*
X192639000Y-129415000D02*
X192732000Y-129509000D01*
X190389000Y-127165000D02*
X190517000Y-127294000D01*
X188298000Y-126630000D02*
X196018000Y-126630000D01*
X188298000Y-133750000D02*
X196018000Y-133750000D01*
X196018000Y-133750000D02*
X196018000Y-126630000D01*
X188298000Y-133750000D02*
X188298000Y-126630000D01*
X194458000Y-133750000D02*
X194458000Y-126630000D01*
X195558000Y-133750000D02*
X195558000Y-126630000D01*
X193138000Y-128440000D02*
G75*
G03X193138000Y-128440000I-1680000J0D01*
G01*
X193138099Y-131911326D02*
G75*
G02X192898000Y-132806000I-1680099J-28674D01*
G01*
X192347894Y-133365358D02*
G75*
G02X190592000Y-133380000I-889894J1425358D01*
G01*
X190032642Y-132829894D02*
G75*
G02X190018000Y-131074000I1425358J889894D01*
G01*
X190567807Y-130514495D02*
G75*
G02X192349000Y-130515000I890193J-1425505D01*
G01*
X192882721Y-131049736D02*
G75*
G02X193138000Y-131940000I-1424721J-890264D01*
G01*
X167106000Y-131867000D02*
X168616000Y-131867000D01*
X167106000Y-135568000D02*
X168616000Y-135568000D01*
X168616000Y-138838000D02*
X168616000Y-128598000D01*
X167106000Y-128598000D02*
X171747000Y-128598000D01*
X167106000Y-138838000D02*
X171747000Y-138838000D01*
X171747000Y-138838000D02*
X171747000Y-128598000D01*
X167106000Y-138838000D02*
X167106000Y-128598000D01*
X138105359Y-99869905D02*
G75*
G02X136656000Y-99772867I-749359J-320095D01*
G01*
X141153359Y-99869905D02*
G75*
G02X139704000Y-99772867I-749359J-320095D01*
G01*
X118626095Y-94081359D02*
G75*
G02X118723133Y-92632000I-320095J749359D01*
G01*
X118626095Y-97891359D02*
G75*
G02X118723133Y-96442000I-320095J749359D01*
G01*
X118626095Y-102209359D02*
G75*
G02X118723133Y-100760000I-320095J749359D01*
G01*
X164376000Y-131799000D02*
X164376000Y-133057000D01*
X166216000Y-131799000D02*
X166216000Y-133057000D01*
X176376000Y-131573000D02*
X176376000Y-130315000D01*
X174536000Y-131573000D02*
X174536000Y-130315000D01*
X193550000Y-121780000D02*
X193550000Y-123110000D01*
X193550000Y-123110000D02*
X192220000Y-123110000D01*
X190950000Y-123110000D02*
X142630000Y-123110000D01*
X142630000Y-120450000D02*
X142630000Y-123110000D01*
X190950000Y-120450000D02*
X142630000Y-120450000D01*
X190950000Y-120450000D02*
X190950000Y-123110000D01*
X193550000Y-104000000D02*
X193550000Y-105330000D01*
X193550000Y-105330000D02*
X192220000Y-105330000D01*
X190950000Y-105330000D02*
X142630000Y-105330000D01*
X142630000Y-102670000D02*
X142630000Y-105330000D01*
X190950000Y-102670000D02*
X142630000Y-102670000D01*
X190950000Y-102670000D02*
X190950000Y-105330000D01*
X127437359Y-132127905D02*
G75*
G02X125988000Y-132030867I-749359J-320095D01*
G01*
X131755359Y-132127905D02*
G75*
G02X130306000Y-132030867I-749359J-320095D01*
G01*
X136073359Y-132127905D02*
G75*
G02X134624000Y-132030867I-749359J-320095D01*
G01*
X140391359Y-132127905D02*
G75*
G02X138942000Y-132030867I-749359J-320095D01*
G01*
X144963359Y-132127905D02*
G75*
G02X143514000Y-132030867I-749359J-320095D01*
G01*
X149535359Y-132127905D02*
G75*
G02X148086000Y-132030867I-749359J-320095D01*
G01*
X154107359Y-132127905D02*
G75*
G02X152658000Y-132030867I-749359J-320095D01*
G01*
X158679359Y-132127905D02*
G75*
G02X157230000Y-132030867I-749359J-320095D01*
G01*
X125608000Y-135042000D02*
X125428000Y-135042000D01*
X127948000Y-135042000D02*
X127768000Y-135042000D01*
X125608000Y-134922000D02*
X125428000Y-134922000D01*
X127948000Y-134922000D02*
X127768000Y-134922000D01*
X125593000Y-138222000D02*
X125428000Y-138222000D01*
X127948000Y-138222000D02*
X127783000Y-138222000D01*
X125608000Y-134802000D02*
X125428000Y-134802000D01*
X127948000Y-134802000D02*
X127768000Y-134802000D01*
X125428000Y-134802000D02*
X125428000Y-138222000D01*
X127948000Y-134802000D02*
X127948000Y-138222000D01*
X129926000Y-135042000D02*
X129746000Y-135042000D01*
X132266000Y-135042000D02*
X132086000Y-135042000D01*
X129926000Y-134922000D02*
X129746000Y-134922000D01*
X132266000Y-134922000D02*
X132086000Y-134922000D01*
X129911000Y-138222000D02*
X129746000Y-138222000D01*
X132266000Y-138222000D02*
X132101000Y-138222000D01*
X129926000Y-134802000D02*
X129746000Y-134802000D01*
X132266000Y-134802000D02*
X132086000Y-134802000D01*
X129746000Y-134802000D02*
X129746000Y-138222000D01*
X132266000Y-134802000D02*
X132266000Y-138222000D01*
X134244000Y-135042000D02*
X134064000Y-135042000D01*
X136584000Y-135042000D02*
X136404000Y-135042000D01*
X134244000Y-134922000D02*
X134064000Y-134922000D01*
X136584000Y-134922000D02*
X136404000Y-134922000D01*
X134229000Y-138222000D02*
X134064000Y-138222000D01*
X136584000Y-138222000D02*
X136419000Y-138222000D01*
X134244000Y-134802000D02*
X134064000Y-134802000D01*
X136584000Y-134802000D02*
X136404000Y-134802000D01*
X134064000Y-134802000D02*
X134064000Y-138222000D01*
X136584000Y-134802000D02*
X136584000Y-138222000D01*
X138562000Y-135042000D02*
X138382000Y-135042000D01*
X140902000Y-135042000D02*
X140722000Y-135042000D01*
X138562000Y-134922000D02*
X138382000Y-134922000D01*
X140902000Y-134922000D02*
X140722000Y-134922000D01*
X138547000Y-138222000D02*
X138382000Y-138222000D01*
X140902000Y-138222000D02*
X140737000Y-138222000D01*
X138562000Y-134802000D02*
X138382000Y-134802000D01*
X140902000Y-134802000D02*
X140722000Y-134802000D01*
X138382000Y-134802000D02*
X138382000Y-138222000D01*
X140902000Y-134802000D02*
X140902000Y-138222000D01*
X143134000Y-135042000D02*
X142954000Y-135042000D01*
X145474000Y-135042000D02*
X145294000Y-135042000D01*
X143134000Y-134922000D02*
X142954000Y-134922000D01*
X145474000Y-134922000D02*
X145294000Y-134922000D01*
X143119000Y-138222000D02*
X142954000Y-138222000D01*
X145474000Y-138222000D02*
X145309000Y-138222000D01*
X143134000Y-134802000D02*
X142954000Y-134802000D01*
X145474000Y-134802000D02*
X145294000Y-134802000D01*
X142954000Y-134802000D02*
X142954000Y-138222000D01*
X145474000Y-134802000D02*
X145474000Y-138222000D01*
X147706000Y-135042000D02*
X147526000Y-135042000D01*
X150046000Y-135042000D02*
X149866000Y-135042000D01*
X147706000Y-134922000D02*
X147526000Y-134922000D01*
X150046000Y-134922000D02*
X149866000Y-134922000D01*
X147691000Y-138222000D02*
X147526000Y-138222000D01*
X150046000Y-138222000D02*
X149881000Y-138222000D01*
X147706000Y-134802000D02*
X147526000Y-134802000D01*
X150046000Y-134802000D02*
X149866000Y-134802000D01*
X147526000Y-134802000D02*
X147526000Y-138222000D01*
X150046000Y-134802000D02*
X150046000Y-138222000D01*
X152278000Y-135042000D02*
X152098000Y-135042000D01*
X154618000Y-135042000D02*
X154438000Y-135042000D01*
X152278000Y-134922000D02*
X152098000Y-134922000D01*
X154618000Y-134922000D02*
X154438000Y-134922000D01*
X152263000Y-138222000D02*
X152098000Y-138222000D01*
X154618000Y-138222000D02*
X154453000Y-138222000D01*
X152278000Y-134802000D02*
X152098000Y-134802000D01*
X154618000Y-134802000D02*
X154438000Y-134802000D01*
X152098000Y-134802000D02*
X152098000Y-138222000D01*
X154618000Y-134802000D02*
X154618000Y-138222000D01*
X156850000Y-135042000D02*
X156670000Y-135042000D01*
X159190000Y-135042000D02*
X159010000Y-135042000D01*
X156850000Y-134922000D02*
X156670000Y-134922000D01*
X159190000Y-134922000D02*
X159010000Y-134922000D01*
X156835000Y-138222000D02*
X156670000Y-138222000D01*
X159190000Y-138222000D02*
X159025000Y-138222000D01*
X156850000Y-134802000D02*
X156670000Y-134802000D01*
X159190000Y-134802000D02*
X159010000Y-134802000D01*
X156670000Y-134802000D02*
X156670000Y-138222000D01*
X159190000Y-134802000D02*
X159190000Y-138222000D01*
X115960000Y-108258000D02*
X117290000Y-108258000D01*
X115960000Y-109588000D02*
X115960000Y-108258000D01*
X118560000Y-108258000D02*
X121160000Y-108258000D01*
X118560000Y-110858000D02*
X118560000Y-108258000D01*
X115960000Y-110858000D02*
X118560000Y-110858000D01*
X121160000Y-108258000D02*
X121160000Y-128698000D01*
X115960000Y-110858000D02*
X115960000Y-128698000D01*
X115960000Y-128698000D02*
X121160000Y-128698000D01*
X121548000Y-86160000D02*
X121548000Y-91360000D01*
X169868000Y-86160000D02*
X121548000Y-86160000D01*
X172468000Y-91360000D02*
X121548000Y-91360000D01*
X169868000Y-86160000D02*
X169868000Y-88760000D01*
X169868000Y-88760000D02*
X172468000Y-88760000D01*
X172468000Y-88760000D02*
X172468000Y-91360000D01*
X171138000Y-86160000D02*
X172468000Y-86160000D01*
X172468000Y-86160000D02*
X172468000Y-87490000D01*
X129244000Y-128698000D02*
G75*
G02X131244000Y-128698000I1000000J0D01*
G01*
X131244000Y-128698000D02*
X132894000Y-128698000D01*
X132894000Y-128698000D02*
X132894000Y-93018000D01*
X132894000Y-93018000D02*
X127594000Y-93018000D01*
X127594000Y-93018000D02*
X127594000Y-128698000D01*
X127594000Y-128698000D02*
X129244000Y-128698000D01*
X135384000Y-128758000D02*
X135384000Y-92958000D01*
X135384000Y-92958000D02*
X125104000Y-92958000D01*
X125104000Y-92958000D02*
X125104000Y-128758000D01*
X125104000Y-128758000D02*
X135384000Y-128758000D01*
D10*
X181861714Y-130360380D02*
X181861714Y-129360380D01*
X182099809Y-129360380D01*
X182242666Y-129408000D01*
X182337904Y-129503238D01*
X182385523Y-129598476D01*
X182433142Y-129788952D01*
X182433142Y-129931809D01*
X182385523Y-130122285D01*
X182337904Y-130217523D01*
X182242666Y-130312761D01*
X182099809Y-130360380D01*
X181861714Y-130360380D01*
X183385523Y-130360380D02*
X182814095Y-130360380D01*
X183099809Y-130360380D02*
X183099809Y-129360380D01*
X183004571Y-129503238D01*
X182909333Y-129598476D01*
X182814095Y-129646095D01*
X184004571Y-129360380D02*
X184099809Y-129360380D01*
X184195047Y-129408000D01*
X184242666Y-129455619D01*
X184290285Y-129550857D01*
X184337904Y-129741333D01*
X184337904Y-129979428D01*
X184290285Y-130169904D01*
X184242666Y-130265142D01*
X184195047Y-130312761D01*
X184099809Y-130360380D01*
X184004571Y-130360380D01*
X183909333Y-130312761D01*
X183861714Y-130265142D01*
X183814095Y-130169904D01*
X183766476Y-129979428D01*
X183766476Y-129741333D01*
X183814095Y-129550857D01*
X183861714Y-129455619D01*
X183909333Y-129408000D01*
X184004571Y-129360380D01*
X183639523Y-126963142D02*
X183591904Y-127010761D01*
X183449047Y-127058380D01*
X183353809Y-127058380D01*
X183210952Y-127010761D01*
X183115714Y-126915523D01*
X183068095Y-126820285D01*
X183020476Y-126629809D01*
X183020476Y-126486952D01*
X183068095Y-126296476D01*
X183115714Y-126201238D01*
X183210952Y-126106000D01*
X183353809Y-126058380D01*
X183449047Y-126058380D01*
X183591904Y-126106000D01*
X183639523Y-126153619D01*
X182337904Y-135440380D02*
X182337904Y-134440380D01*
X182576000Y-134440380D01*
X182718857Y-134488000D01*
X182814095Y-134583238D01*
X182861714Y-134678476D01*
X182909333Y-134868952D01*
X182909333Y-135011809D01*
X182861714Y-135202285D01*
X182814095Y-135297523D01*
X182718857Y-135392761D01*
X182576000Y-135440380D01*
X182337904Y-135440380D01*
X183385523Y-135440380D02*
X183576000Y-135440380D01*
X183671238Y-135392761D01*
X183718857Y-135345142D01*
X183814095Y-135202285D01*
X183861714Y-135011809D01*
X183861714Y-134630857D01*
X183814095Y-134535619D01*
X183766476Y-134488000D01*
X183671238Y-134440380D01*
X183480761Y-134440380D01*
X183385523Y-134488000D01*
X183337904Y-134535619D01*
X183290285Y-134630857D01*
X183290285Y-134868952D01*
X183337904Y-134964190D01*
X183385523Y-135011809D01*
X183480761Y-135059428D01*
X183671238Y-135059428D01*
X183766476Y-135011809D01*
X183814095Y-134964190D01*
X183861714Y-134868952D01*
X182391523Y-133651142D02*
X182343904Y-133698761D01*
X182201047Y-133746380D01*
X182105809Y-133746380D01*
X181962952Y-133698761D01*
X181867714Y-133603523D01*
X181820095Y-133508285D01*
X181772476Y-133317809D01*
X181772476Y-133174952D01*
X181820095Y-132984476D01*
X181867714Y-132889238D01*
X181962952Y-132794000D01*
X182105809Y-132746380D01*
X182201047Y-132746380D01*
X182343904Y-132794000D01*
X182391523Y-132841619D01*
X195188666Y-96594380D02*
X195188666Y-97308666D01*
X195141047Y-97451523D01*
X195045809Y-97546761D01*
X194902952Y-97594380D01*
X194807714Y-97594380D01*
X196093428Y-96594380D02*
X195902952Y-96594380D01*
X195807714Y-96642000D01*
X195760095Y-96689619D01*
X195664857Y-96832476D01*
X195617238Y-97022952D01*
X195617238Y-97403904D01*
X195664857Y-97499142D01*
X195712476Y-97546761D01*
X195807714Y-97594380D01*
X195998190Y-97594380D01*
X196093428Y-97546761D01*
X196141047Y-97499142D01*
X196188666Y-97403904D01*
X196188666Y-97165809D01*
X196141047Y-97070571D01*
X196093428Y-97022952D01*
X195998190Y-96975333D01*
X195807714Y-96975333D01*
X195712476Y-97022952D01*
X195664857Y-97070571D01*
X195617238Y-97165809D01*
X139763142Y-106432666D02*
X139810761Y-106480285D01*
X139858380Y-106623142D01*
X139858380Y-106718380D01*
X139810761Y-106861238D01*
X139715523Y-106956476D01*
X139620285Y-107004095D01*
X139429809Y-107051714D01*
X139286952Y-107051714D01*
X139096476Y-107004095D01*
X139001238Y-106956476D01*
X138906000Y-106861238D01*
X138858380Y-106718380D01*
X138858380Y-106623142D01*
X138906000Y-106480285D01*
X138953619Y-106432666D01*
X138858380Y-106099333D02*
X138858380Y-105480285D01*
X139239333Y-105813619D01*
X139239333Y-105670761D01*
X139286952Y-105575523D01*
X139334571Y-105527904D01*
X139429809Y-105480285D01*
X139667904Y-105480285D01*
X139763142Y-105527904D01*
X139810761Y-105575523D01*
X139858380Y-105670761D01*
X139858380Y-105956476D01*
X139810761Y-106051714D01*
X139763142Y-106099333D01*
X186576380Y-92958857D02*
X186100190Y-93292190D01*
X186576380Y-93530285D02*
X185576380Y-93530285D01*
X185576380Y-93149333D01*
X185624000Y-93054095D01*
X185671619Y-93006476D01*
X185766857Y-92958857D01*
X185909714Y-92958857D01*
X186004952Y-93006476D01*
X186052571Y-93054095D01*
X186100190Y-93149333D01*
X186100190Y-93530285D01*
X186576380Y-92006476D02*
X186576380Y-92577904D01*
X186576380Y-92292190D02*
X185576380Y-92292190D01*
X185719238Y-92387428D01*
X185814476Y-92482666D01*
X185862095Y-92577904D01*
X185576380Y-91101714D02*
X185576380Y-91577904D01*
X186052571Y-91625523D01*
X186004952Y-91577904D01*
X185957333Y-91482666D01*
X185957333Y-91244571D01*
X186004952Y-91149333D01*
X186052571Y-91101714D01*
X186147809Y-91054095D01*
X186385904Y-91054095D01*
X186481142Y-91101714D01*
X186528761Y-91149333D01*
X186576380Y-91244571D01*
X186576380Y-91482666D01*
X186528761Y-91577904D01*
X186481142Y-91625523D01*
X122047142Y-107388380D02*
X121713809Y-106912190D01*
X121475714Y-107388380D02*
X121475714Y-106388380D01*
X121856666Y-106388380D01*
X121951904Y-106436000D01*
X121999523Y-106483619D01*
X122047142Y-106578857D01*
X122047142Y-106721714D01*
X121999523Y-106816952D01*
X121951904Y-106864571D01*
X121856666Y-106912190D01*
X121475714Y-106912190D01*
X122999523Y-107388380D02*
X122428095Y-107388380D01*
X122713809Y-107388380D02*
X122713809Y-106388380D01*
X122618571Y-106531238D01*
X122523333Y-106626476D01*
X122428095Y-106674095D01*
X123856666Y-106721714D02*
X123856666Y-107388380D01*
X123618571Y-106340761D02*
X123380476Y-107055047D01*
X123999523Y-107055047D01*
X181099714Y-90964380D02*
X181099714Y-89964380D01*
X181337809Y-89964380D01*
X181480666Y-90012000D01*
X181575904Y-90107238D01*
X181623523Y-90202476D01*
X181671142Y-90392952D01*
X181671142Y-90535809D01*
X181623523Y-90726285D01*
X181575904Y-90821523D01*
X181480666Y-90916761D01*
X181337809Y-90964380D01*
X181099714Y-90964380D01*
X182623523Y-90964380D02*
X182052095Y-90964380D01*
X182337809Y-90964380D02*
X182337809Y-89964380D01*
X182242571Y-90107238D01*
X182147333Y-90202476D01*
X182052095Y-90250095D01*
X183575904Y-90964380D02*
X183004476Y-90964380D01*
X183290190Y-90964380D02*
X183290190Y-89964380D01*
X183194952Y-90107238D01*
X183099714Y-90202476D01*
X183004476Y-90250095D01*
X195696666Y-124534380D02*
X195696666Y-125248666D01*
X195649047Y-125391523D01*
X195553809Y-125486761D01*
X195410952Y-125534380D01*
X195315714Y-125534380D01*
X196696666Y-125534380D02*
X196125238Y-125534380D01*
X196410952Y-125534380D02*
X196410952Y-124534380D01*
X196315714Y-124677238D01*
X196220476Y-124772476D01*
X196125238Y-124820095D01*
X165256380Y-137019904D02*
X166065904Y-137019904D01*
X166161142Y-136972285D01*
X166208761Y-136924666D01*
X166256380Y-136829428D01*
X166256380Y-136638952D01*
X166208761Y-136543714D01*
X166161142Y-136496095D01*
X166065904Y-136448476D01*
X165256380Y-136448476D01*
X166256380Y-135448476D02*
X166256380Y-136019904D01*
X166256380Y-135734190D02*
X165256380Y-135734190D01*
X165399238Y-135829428D01*
X165494476Y-135924666D01*
X165542095Y-136019904D01*
X136713142Y-96832380D02*
X136379809Y-96356190D01*
X136141714Y-96832380D02*
X136141714Y-95832380D01*
X136522666Y-95832380D01*
X136617904Y-95880000D01*
X136665523Y-95927619D01*
X136713142Y-96022857D01*
X136713142Y-96165714D01*
X136665523Y-96260952D01*
X136617904Y-96308571D01*
X136522666Y-96356190D01*
X136141714Y-96356190D01*
X137665523Y-96832380D02*
X137094095Y-96832380D01*
X137379809Y-96832380D02*
X137379809Y-95832380D01*
X137284571Y-95975238D01*
X137189333Y-96070476D01*
X137094095Y-96118095D01*
X137998857Y-95832380D02*
X138617904Y-95832380D01*
X138284571Y-96213333D01*
X138427428Y-96213333D01*
X138522666Y-96260952D01*
X138570285Y-96308571D01*
X138617904Y-96403809D01*
X138617904Y-96641904D01*
X138570285Y-96737142D01*
X138522666Y-96784761D01*
X138427428Y-96832380D01*
X138141714Y-96832380D01*
X138046476Y-96784761D01*
X137998857Y-96737142D01*
X140015142Y-96832380D02*
X139681809Y-96356190D01*
X139443714Y-96832380D02*
X139443714Y-95832380D01*
X139824666Y-95832380D01*
X139919904Y-95880000D01*
X139967523Y-95927619D01*
X140015142Y-96022857D01*
X140015142Y-96165714D01*
X139967523Y-96260952D01*
X139919904Y-96308571D01*
X139824666Y-96356190D01*
X139443714Y-96356190D01*
X140967523Y-96832380D02*
X140396095Y-96832380D01*
X140681809Y-96832380D02*
X140681809Y-95832380D01*
X140586571Y-95975238D01*
X140491333Y-96070476D01*
X140396095Y-96118095D01*
X141348476Y-95927619D02*
X141396095Y-95880000D01*
X141491333Y-95832380D01*
X141729428Y-95832380D01*
X141824666Y-95880000D01*
X141872285Y-95927619D01*
X141919904Y-96022857D01*
X141919904Y-96118095D01*
X141872285Y-96260952D01*
X141300857Y-96832380D01*
X141919904Y-96832380D01*
X119187142Y-92006380D02*
X118853809Y-91530190D01*
X118615714Y-92006380D02*
X118615714Y-91006380D01*
X118996666Y-91006380D01*
X119091904Y-91054000D01*
X119139523Y-91101619D01*
X119187142Y-91196857D01*
X119187142Y-91339714D01*
X119139523Y-91434952D01*
X119091904Y-91482571D01*
X118996666Y-91530190D01*
X118615714Y-91530190D01*
X120139523Y-92006380D02*
X119568095Y-92006380D01*
X119853809Y-92006380D02*
X119853809Y-91006380D01*
X119758571Y-91149238D01*
X119663333Y-91244476D01*
X119568095Y-91292095D01*
X121091904Y-92006380D02*
X120520476Y-92006380D01*
X120806190Y-92006380D02*
X120806190Y-91006380D01*
X120710952Y-91149238D01*
X120615714Y-91244476D01*
X120520476Y-91292095D01*
X118613142Y-95674380D02*
X118279809Y-95198190D01*
X118041714Y-95674380D02*
X118041714Y-94674380D01*
X118422666Y-94674380D01*
X118517904Y-94722000D01*
X118565523Y-94769619D01*
X118613142Y-94864857D01*
X118613142Y-95007714D01*
X118565523Y-95102952D01*
X118517904Y-95150571D01*
X118422666Y-95198190D01*
X118041714Y-95198190D01*
X119565523Y-95674380D02*
X118994095Y-95674380D01*
X119279809Y-95674380D02*
X119279809Y-94674380D01*
X119184571Y-94817238D01*
X119089333Y-94912476D01*
X118994095Y-94960095D01*
X120184571Y-94674380D02*
X120279809Y-94674380D01*
X120375047Y-94722000D01*
X120422666Y-94769619D01*
X120470285Y-94864857D01*
X120517904Y-95055333D01*
X120517904Y-95293428D01*
X120470285Y-95483904D01*
X120422666Y-95579142D01*
X120375047Y-95626761D01*
X120279809Y-95674380D01*
X120184571Y-95674380D01*
X120089333Y-95626761D01*
X120041714Y-95579142D01*
X119994095Y-95483904D01*
X119946476Y-95293428D01*
X119946476Y-95055333D01*
X119994095Y-94864857D01*
X120041714Y-94769619D01*
X120089333Y-94722000D01*
X120184571Y-94674380D01*
X119089333Y-99992380D02*
X118756000Y-99516190D01*
X118517904Y-99992380D02*
X118517904Y-98992380D01*
X118898857Y-98992380D01*
X118994095Y-99040000D01*
X119041714Y-99087619D01*
X119089333Y-99182857D01*
X119089333Y-99325714D01*
X119041714Y-99420952D01*
X118994095Y-99468571D01*
X118898857Y-99516190D01*
X118517904Y-99516190D01*
X119565523Y-99992380D02*
X119756000Y-99992380D01*
X119851238Y-99944761D01*
X119898857Y-99897142D01*
X119994095Y-99754285D01*
X120041714Y-99563809D01*
X120041714Y-99182857D01*
X119994095Y-99087619D01*
X119946476Y-99040000D01*
X119851238Y-98992380D01*
X119660761Y-98992380D01*
X119565523Y-99040000D01*
X119517904Y-99087619D01*
X119470285Y-99182857D01*
X119470285Y-99420952D01*
X119517904Y-99516190D01*
X119565523Y-99563809D01*
X119660761Y-99611428D01*
X119851238Y-99611428D01*
X119946476Y-99563809D01*
X119994095Y-99516190D01*
X120041714Y-99420952D01*
X165653142Y-128804666D02*
X165700761Y-128852285D01*
X165748380Y-128995142D01*
X165748380Y-129090380D01*
X165700761Y-129233238D01*
X165605523Y-129328476D01*
X165510285Y-129376095D01*
X165319809Y-129423714D01*
X165176952Y-129423714D01*
X164986476Y-129376095D01*
X164891238Y-129328476D01*
X164796000Y-129233238D01*
X164748380Y-129090380D01*
X164748380Y-128995142D01*
X164796000Y-128852285D01*
X164843619Y-128804666D01*
X164843619Y-128423714D02*
X164796000Y-128376095D01*
X164748380Y-128280857D01*
X164748380Y-128042761D01*
X164796000Y-127947523D01*
X164843619Y-127899904D01*
X164938857Y-127852285D01*
X165034095Y-127852285D01*
X165176952Y-127899904D01*
X165748380Y-128471333D01*
X165748380Y-127852285D01*
X173763142Y-131110666D02*
X173810761Y-131158285D01*
X173858380Y-131301142D01*
X173858380Y-131396380D01*
X173810761Y-131539238D01*
X173715523Y-131634476D01*
X173620285Y-131682095D01*
X173429809Y-131729714D01*
X173286952Y-131729714D01*
X173096476Y-131682095D01*
X173001238Y-131634476D01*
X172906000Y-131539238D01*
X172858380Y-131396380D01*
X172858380Y-131301142D01*
X172906000Y-131158285D01*
X172953619Y-131110666D01*
X173858380Y-130158285D02*
X173858380Y-130729714D01*
X173858380Y-130444000D02*
X172858380Y-130444000D01*
X173001238Y-130539238D01*
X173096476Y-130634476D01*
X173144095Y-130729714D01*
X194656666Y-121232380D02*
X194656666Y-121946666D01*
X194609047Y-122089523D01*
X194513809Y-122184761D01*
X194370952Y-122232380D01*
X194275714Y-122232380D01*
X195037619Y-121232380D02*
X195656666Y-121232380D01*
X195323333Y-121613333D01*
X195466190Y-121613333D01*
X195561428Y-121660952D01*
X195609047Y-121708571D01*
X195656666Y-121803809D01*
X195656666Y-122041904D01*
X195609047Y-122137142D01*
X195561428Y-122184761D01*
X195466190Y-122232380D01*
X195180476Y-122232380D01*
X195085238Y-122184761D01*
X195037619Y-122137142D01*
X194656666Y-103452380D02*
X194656666Y-104166666D01*
X194609047Y-104309523D01*
X194513809Y-104404761D01*
X194370952Y-104452380D01*
X194275714Y-104452380D01*
X195085238Y-103547619D02*
X195132857Y-103500000D01*
X195228095Y-103452380D01*
X195466190Y-103452380D01*
X195561428Y-103500000D01*
X195609047Y-103547619D01*
X195656666Y-103642857D01*
X195656666Y-103738095D01*
X195609047Y-103880952D01*
X195037619Y-104452380D01*
X195656666Y-104452380D01*
X125220380Y-131664666D02*
X124744190Y-131998000D01*
X125220380Y-132236095D02*
X124220380Y-132236095D01*
X124220380Y-131855142D01*
X124268000Y-131759904D01*
X124315619Y-131712285D01*
X124410857Y-131664666D01*
X124553714Y-131664666D01*
X124648952Y-131712285D01*
X124696571Y-131759904D01*
X124744190Y-131855142D01*
X124744190Y-132236095D01*
X124648952Y-131093238D02*
X124601333Y-131188476D01*
X124553714Y-131236095D01*
X124458476Y-131283714D01*
X124410857Y-131283714D01*
X124315619Y-131236095D01*
X124268000Y-131188476D01*
X124220380Y-131093238D01*
X124220380Y-130902761D01*
X124268000Y-130807523D01*
X124315619Y-130759904D01*
X124410857Y-130712285D01*
X124458476Y-130712285D01*
X124553714Y-130759904D01*
X124601333Y-130807523D01*
X124648952Y-130902761D01*
X124648952Y-131093238D01*
X124696571Y-131188476D01*
X124744190Y-131236095D01*
X124839428Y-131283714D01*
X125029904Y-131283714D01*
X125125142Y-131236095D01*
X125172761Y-131188476D01*
X125220380Y-131093238D01*
X125220380Y-130902761D01*
X125172761Y-130807523D01*
X125125142Y-130759904D01*
X125029904Y-130712285D01*
X124839428Y-130712285D01*
X124744190Y-130759904D01*
X124696571Y-130807523D01*
X124648952Y-130902761D01*
X129538380Y-131664666D02*
X129062190Y-131998000D01*
X129538380Y-132236095D02*
X128538380Y-132236095D01*
X128538380Y-131855142D01*
X128586000Y-131759904D01*
X128633619Y-131712285D01*
X128728857Y-131664666D01*
X128871714Y-131664666D01*
X128966952Y-131712285D01*
X129014571Y-131759904D01*
X129062190Y-131855142D01*
X129062190Y-132236095D01*
X128538380Y-131331333D02*
X128538380Y-130664666D01*
X129538380Y-131093238D01*
X133856380Y-131664666D02*
X133380190Y-131998000D01*
X133856380Y-132236095D02*
X132856380Y-132236095D01*
X132856380Y-131855142D01*
X132904000Y-131759904D01*
X132951619Y-131712285D01*
X133046857Y-131664666D01*
X133189714Y-131664666D01*
X133284952Y-131712285D01*
X133332571Y-131759904D01*
X133380190Y-131855142D01*
X133380190Y-132236095D01*
X132856380Y-130807523D02*
X132856380Y-130998000D01*
X132904000Y-131093238D01*
X132951619Y-131140857D01*
X133094476Y-131236095D01*
X133284952Y-131283714D01*
X133665904Y-131283714D01*
X133761142Y-131236095D01*
X133808761Y-131188476D01*
X133856380Y-131093238D01*
X133856380Y-130902761D01*
X133808761Y-130807523D01*
X133761142Y-130759904D01*
X133665904Y-130712285D01*
X133427809Y-130712285D01*
X133332571Y-130759904D01*
X133284952Y-130807523D01*
X133237333Y-130902761D01*
X133237333Y-131093238D01*
X133284952Y-131188476D01*
X133332571Y-131236095D01*
X133427809Y-131283714D01*
X138174380Y-131664666D02*
X137698190Y-131998000D01*
X138174380Y-132236095D02*
X137174380Y-132236095D01*
X137174380Y-131855142D01*
X137222000Y-131759904D01*
X137269619Y-131712285D01*
X137364857Y-131664666D01*
X137507714Y-131664666D01*
X137602952Y-131712285D01*
X137650571Y-131759904D01*
X137698190Y-131855142D01*
X137698190Y-132236095D01*
X137174380Y-130759904D02*
X137174380Y-131236095D01*
X137650571Y-131283714D01*
X137602952Y-131236095D01*
X137555333Y-131140857D01*
X137555333Y-130902761D01*
X137602952Y-130807523D01*
X137650571Y-130759904D01*
X137745809Y-130712285D01*
X137983904Y-130712285D01*
X138079142Y-130759904D01*
X138126761Y-130807523D01*
X138174380Y-130902761D01*
X138174380Y-131140857D01*
X138126761Y-131236095D01*
X138079142Y-131283714D01*
X142746380Y-131664666D02*
X142270190Y-131998000D01*
X142746380Y-132236095D02*
X141746380Y-132236095D01*
X141746380Y-131855142D01*
X141794000Y-131759904D01*
X141841619Y-131712285D01*
X141936857Y-131664666D01*
X142079714Y-131664666D01*
X142174952Y-131712285D01*
X142222571Y-131759904D01*
X142270190Y-131855142D01*
X142270190Y-132236095D01*
X142079714Y-130807523D02*
X142746380Y-130807523D01*
X141698761Y-131045619D02*
X142413047Y-131283714D01*
X142413047Y-130664666D01*
X147318380Y-131664666D02*
X146842190Y-131998000D01*
X147318380Y-132236095D02*
X146318380Y-132236095D01*
X146318380Y-131855142D01*
X146366000Y-131759904D01*
X146413619Y-131712285D01*
X146508857Y-131664666D01*
X146651714Y-131664666D01*
X146746952Y-131712285D01*
X146794571Y-131759904D01*
X146842190Y-131855142D01*
X146842190Y-132236095D01*
X146318380Y-131331333D02*
X146318380Y-130712285D01*
X146699333Y-131045619D01*
X146699333Y-130902761D01*
X146746952Y-130807523D01*
X146794571Y-130759904D01*
X146889809Y-130712285D01*
X147127904Y-130712285D01*
X147223142Y-130759904D01*
X147270761Y-130807523D01*
X147318380Y-130902761D01*
X147318380Y-131188476D01*
X147270761Y-131283714D01*
X147223142Y-131331333D01*
X151890380Y-131664666D02*
X151414190Y-131998000D01*
X151890380Y-132236095D02*
X150890380Y-132236095D01*
X150890380Y-131855142D01*
X150938000Y-131759904D01*
X150985619Y-131712285D01*
X151080857Y-131664666D01*
X151223714Y-131664666D01*
X151318952Y-131712285D01*
X151366571Y-131759904D01*
X151414190Y-131855142D01*
X151414190Y-132236095D01*
X150985619Y-131283714D02*
X150938000Y-131236095D01*
X150890380Y-131140857D01*
X150890380Y-130902761D01*
X150938000Y-130807523D01*
X150985619Y-130759904D01*
X151080857Y-130712285D01*
X151176095Y-130712285D01*
X151318952Y-130759904D01*
X151890380Y-131331333D01*
X151890380Y-130712285D01*
X156462380Y-131664666D02*
X155986190Y-131998000D01*
X156462380Y-132236095D02*
X155462380Y-132236095D01*
X155462380Y-131855142D01*
X155510000Y-131759904D01*
X155557619Y-131712285D01*
X155652857Y-131664666D01*
X155795714Y-131664666D01*
X155890952Y-131712285D01*
X155938571Y-131759904D01*
X155986190Y-131855142D01*
X155986190Y-132236095D01*
X156462380Y-130712285D02*
X156462380Y-131283714D01*
X156462380Y-130998000D02*
X155462380Y-130998000D01*
X155605238Y-131093238D01*
X155700476Y-131188476D01*
X155748095Y-131283714D01*
X129400380Y-137250095D02*
X128400380Y-137250095D01*
X128400380Y-137012000D01*
X128448000Y-136869142D01*
X128543238Y-136773904D01*
X128638476Y-136726285D01*
X128828952Y-136678666D01*
X128971809Y-136678666D01*
X129162285Y-136726285D01*
X129257523Y-136773904D01*
X129352761Y-136869142D01*
X129400380Y-137012000D01*
X129400380Y-137250095D01*
X128828952Y-136107238D02*
X128781333Y-136202476D01*
X128733714Y-136250095D01*
X128638476Y-136297714D01*
X128590857Y-136297714D01*
X128495619Y-136250095D01*
X128448000Y-136202476D01*
X128400380Y-136107238D01*
X128400380Y-135916761D01*
X128448000Y-135821523D01*
X128495619Y-135773904D01*
X128590857Y-135726285D01*
X128638476Y-135726285D01*
X128733714Y-135773904D01*
X128781333Y-135821523D01*
X128828952Y-135916761D01*
X128828952Y-136107238D01*
X128876571Y-136202476D01*
X128924190Y-136250095D01*
X129019428Y-136297714D01*
X129209904Y-136297714D01*
X129305142Y-136250095D01*
X129352761Y-136202476D01*
X129400380Y-136107238D01*
X129400380Y-135916761D01*
X129352761Y-135821523D01*
X129305142Y-135773904D01*
X129209904Y-135726285D01*
X129019428Y-135726285D01*
X128924190Y-135773904D01*
X128876571Y-135821523D01*
X128828952Y-135916761D01*
X133718380Y-137250095D02*
X132718380Y-137250095D01*
X132718380Y-137012000D01*
X132766000Y-136869142D01*
X132861238Y-136773904D01*
X132956476Y-136726285D01*
X133146952Y-136678666D01*
X133289809Y-136678666D01*
X133480285Y-136726285D01*
X133575523Y-136773904D01*
X133670761Y-136869142D01*
X133718380Y-137012000D01*
X133718380Y-137250095D01*
X132718380Y-136345333D02*
X132718380Y-135678666D01*
X133718380Y-136107238D01*
X138036380Y-137250095D02*
X137036380Y-137250095D01*
X137036380Y-137012000D01*
X137084000Y-136869142D01*
X137179238Y-136773904D01*
X137274476Y-136726285D01*
X137464952Y-136678666D01*
X137607809Y-136678666D01*
X137798285Y-136726285D01*
X137893523Y-136773904D01*
X137988761Y-136869142D01*
X138036380Y-137012000D01*
X138036380Y-137250095D01*
X137036380Y-135821523D02*
X137036380Y-136012000D01*
X137084000Y-136107238D01*
X137131619Y-136154857D01*
X137274476Y-136250095D01*
X137464952Y-136297714D01*
X137845904Y-136297714D01*
X137941142Y-136250095D01*
X137988761Y-136202476D01*
X138036380Y-136107238D01*
X138036380Y-135916761D01*
X137988761Y-135821523D01*
X137941142Y-135773904D01*
X137845904Y-135726285D01*
X137607809Y-135726285D01*
X137512571Y-135773904D01*
X137464952Y-135821523D01*
X137417333Y-135916761D01*
X137417333Y-136107238D01*
X137464952Y-136202476D01*
X137512571Y-136250095D01*
X137607809Y-136297714D01*
X142354380Y-137250095D02*
X141354380Y-137250095D01*
X141354380Y-137012000D01*
X141402000Y-136869142D01*
X141497238Y-136773904D01*
X141592476Y-136726285D01*
X141782952Y-136678666D01*
X141925809Y-136678666D01*
X142116285Y-136726285D01*
X142211523Y-136773904D01*
X142306761Y-136869142D01*
X142354380Y-137012000D01*
X142354380Y-137250095D01*
X141354380Y-135773904D02*
X141354380Y-136250095D01*
X141830571Y-136297714D01*
X141782952Y-136250095D01*
X141735333Y-136154857D01*
X141735333Y-135916761D01*
X141782952Y-135821523D01*
X141830571Y-135773904D01*
X141925809Y-135726285D01*
X142163904Y-135726285D01*
X142259142Y-135773904D01*
X142306761Y-135821523D01*
X142354380Y-135916761D01*
X142354380Y-136154857D01*
X142306761Y-136250095D01*
X142259142Y-136297714D01*
X146926380Y-137250095D02*
X145926380Y-137250095D01*
X145926380Y-137012000D01*
X145974000Y-136869142D01*
X146069238Y-136773904D01*
X146164476Y-136726285D01*
X146354952Y-136678666D01*
X146497809Y-136678666D01*
X146688285Y-136726285D01*
X146783523Y-136773904D01*
X146878761Y-136869142D01*
X146926380Y-137012000D01*
X146926380Y-137250095D01*
X146259714Y-135821523D02*
X146926380Y-135821523D01*
X145878761Y-136059619D02*
X146593047Y-136297714D01*
X146593047Y-135678666D01*
X151498380Y-137250095D02*
X150498380Y-137250095D01*
X150498380Y-137012000D01*
X150546000Y-136869142D01*
X150641238Y-136773904D01*
X150736476Y-136726285D01*
X150926952Y-136678666D01*
X151069809Y-136678666D01*
X151260285Y-136726285D01*
X151355523Y-136773904D01*
X151450761Y-136869142D01*
X151498380Y-137012000D01*
X151498380Y-137250095D01*
X150498380Y-136345333D02*
X150498380Y-135726285D01*
X150879333Y-136059619D01*
X150879333Y-135916761D01*
X150926952Y-135821523D01*
X150974571Y-135773904D01*
X151069809Y-135726285D01*
X151307904Y-135726285D01*
X151403142Y-135773904D01*
X151450761Y-135821523D01*
X151498380Y-135916761D01*
X151498380Y-136202476D01*
X151450761Y-136297714D01*
X151403142Y-136345333D01*
X156070380Y-137250095D02*
X155070380Y-137250095D01*
X155070380Y-137012000D01*
X155118000Y-136869142D01*
X155213238Y-136773904D01*
X155308476Y-136726285D01*
X155498952Y-136678666D01*
X155641809Y-136678666D01*
X155832285Y-136726285D01*
X155927523Y-136773904D01*
X156022761Y-136869142D01*
X156070380Y-137012000D01*
X156070380Y-137250095D01*
X155165619Y-136297714D02*
X155118000Y-136250095D01*
X155070380Y-136154857D01*
X155070380Y-135916761D01*
X155118000Y-135821523D01*
X155165619Y-135773904D01*
X155260857Y-135726285D01*
X155356095Y-135726285D01*
X155498952Y-135773904D01*
X156070380Y-136345333D01*
X156070380Y-135726285D01*
X160642380Y-137250095D02*
X159642380Y-137250095D01*
X159642380Y-137012000D01*
X159690000Y-136869142D01*
X159785238Y-136773904D01*
X159880476Y-136726285D01*
X160070952Y-136678666D01*
X160213809Y-136678666D01*
X160404285Y-136726285D01*
X160499523Y-136773904D01*
X160594761Y-136869142D01*
X160642380Y-137012000D01*
X160642380Y-137250095D01*
X160642380Y-135726285D02*
X160642380Y-136297714D01*
X160642380Y-136012000D02*
X159642380Y-136012000D01*
X159785238Y-136107238D01*
X159880476Y-136202476D01*
X159928095Y-136297714D01*
X118226666Y-130122380D02*
X118226666Y-130836666D01*
X118179047Y-130979523D01*
X118083809Y-131074761D01*
X117940952Y-131122380D01*
X117845714Y-131122380D01*
X119131428Y-130455714D02*
X119131428Y-131122380D01*
X118893333Y-130074761D02*
X118655238Y-130789047D01*
X119274285Y-130789047D01*
X170804666Y-92276380D02*
X170804666Y-92990666D01*
X170757047Y-93133523D01*
X170661809Y-93228761D01*
X170518952Y-93276380D01*
X170423714Y-93276380D01*
X171757047Y-92276380D02*
X171280857Y-92276380D01*
X171233238Y-92752571D01*
X171280857Y-92704952D01*
X171376095Y-92657333D01*
X171614190Y-92657333D01*
X171709428Y-92704952D01*
X171757047Y-92752571D01*
X171804666Y-92847809D01*
X171804666Y-93085904D01*
X171757047Y-93181142D01*
X171709428Y-93228761D01*
X171614190Y-93276380D01*
X171376095Y-93276380D01*
X171280857Y-93228761D01*
X171233238Y-93181142D01*
X129482095Y-129150380D02*
X129482095Y-129959904D01*
X129529714Y-130055142D01*
X129577333Y-130102761D01*
X129672571Y-130150380D01*
X129863047Y-130150380D01*
X129958285Y-130102761D01*
X130005904Y-130055142D01*
X130053523Y-129959904D01*
X130053523Y-129150380D01*
X130482095Y-129245619D02*
X130529714Y-129198000D01*
X130624952Y-129150380D01*
X130863047Y-129150380D01*
X130958285Y-129198000D01*
X131005904Y-129245619D01*
X131053523Y-129340857D01*
X131053523Y-129436095D01*
X131005904Y-129578952D01*
X130434476Y-130150380D01*
X131053523Y-130150380D01*
M02*
